<?xml version="1.0" encoding="utf-8"?>
<!-- Generator: Adobe Illustrator 28.0.0, SVG Export Plug-In . SVG Version: 6.00 Build 0)  -->
<svg version="1.1" id="Capa_1" xmlns="http://www.w3.org/2000/svg" xmlns:xlink="http://www.w3.org/1999/xlink" x="0px" y="0px"
	 viewBox="0 0 3710 3710" style="enable-background:new 0 0 3710 3710;" xml:space="preserve">
<style type="text/css">
	.st0{display:none;}
	.st1{display:inline;}
	.st2{fill:#FFFFFF;}
	.st3{opacity:0.3;fill:url(#SVGID_1_);enable-background:new    ;}
	.st4{fill:url(#SVGID_00000071526679937279599910000003735646082366025901_);}
	.st5{fill:url(#SVGID_00000056399323859361621330000010893346499389068986_);}
	.st6{opacity:0.37;fill:#FFFFFF;enable-background:new    ;}
	.st7{fill:url(#SVGID_00000026144387748187425360000003284390005239088549_);}
	.st8{opacity:0.5;fill:#FFFFFF;enable-background:new    ;}
	.st9{fill:url(#SVGID_00000080888138441916235590000008523590584654878393_);}
	.st10{fill:url(#SVGID_00000111888089164954556130000012014583446461313168_);}
	.st11{fill:url(#SVGID_00000034802195129430398260000010210183017076318624_);}
	.st12{fill:url(#SVGID_00000132805706031599130930000012618060035137656477_);}
	.st13{fill:url(#SVGID_00000160896872739698861520000014258170045093777814_);}
	.st14{fill:url(#SVGID_00000161596322157403316530000002312906179517700795_);}
	.st15{fill:url(#SVGID_00000036935507737854799520000004456894386029861054_);}
	.st16{fill:url(#SVGID_00000132061869975814663960000005209483731726694016_);}
	.st17{fill:url(#SVGID_00000115510209708628276170000006628941658248790677_);}
	.st18{fill:url(#SVGID_00000026885592111041154690000014047165399539245457_);}
	.st19{fill:url(#SVGID_00000180336172923033712080000008654394740318955414_);}
	.st20{fill:url(#SVGID_00000172414310780472950030000001650643486488124848_);}
	.st21{fill:url(#SVGID_00000152235564143449415530000003909668995823939466_);}
	.st22{fill:url(#SVGID_00000136412235582890001850000012021681630167011971_);}
	.st23{fill:url(#SVGID_00000118375206877418061430000007688536018240232620_);}
	.st24{fill:url(#SVGID_00000001633358280403216980000000277850340837966487_);}
	.st25{fill:url(#SVGID_00000054251870000986635190000009747857923685446541_);}
	.st26{fill:url(#SVGID_00000030445840965306101280000016094164167503154589_);}
	.st27{fill:url(#SVGID_00000143603652250723143580000005996779933986697645_);}
	.st28{fill:url(#SVGID_00000163770133310289914000000000696379787017033369_);}
	.st29{fill:url(#SVGID_00000013886322217266120690000003453859481732429961_);}
	.st30{fill:url(#SVGID_00000013179011326581567880000001524109385996012192_);}
	.st31{fill:url(#SVGID_00000033362491381089096520000012404093044850255771_);}
	.st32{fill:url(#SVGID_00000088853086144536091410000004504179341773077900_);}
	.st33{fill:url(#SVGID_00000062156454660424523040000013038716384190607289_);}
	.st34{fill:url(#SVGID_00000082368641003901686180000005718758203926902953_);}
	.st35{opacity:0.39;fill:#FFFFFF;enable-background:new    ;}
	.st36{fill:url(#SVGID_00000068640703722574523170000014791236020875898532_);}
	.st37{fill:url(#SVGID_00000158015482923337181110000014696069944428863146_);}
	.st38{fill:url(#SVGID_00000163773056062720502090000000460224589377519796_);}
	.st39{fill:url(#SVGID_00000079483352438508748790000003238895459391600030_);}
	.st40{fill:url(#SVGID_00000026880079897889053990000013400602042006202022_);}
	.st41{fill:url(#SVGID_00000057865403527613146380000015643995039929480631_);}
	.st42{fill:url(#SVGID_00000120540099780883343270000009417351096651600304_);}
	.st43{fill:url(#SVGID_00000099644548727658493730000004486991895251522435_);}
	.st44{fill:url(#SVGID_00000003813777364187565890000011094181493455782016_);}
	.st45{fill:url(#SVGID_00000088825914964930677080000015370740287860698262_);}
	.st46{fill:url(#SVGID_00000069366365543348189270000010496238968052377516_);}
	.st47{fill:url(#SVGID_00000177446524568542474430000001174511684075989950_);}
	.st48{opacity:0.64;}
	.st49{fill:url(#SVGID_00000062182032356379746470000005028810425273438600_);}
	.st50{fill:url(#SVGID_00000096052938270276031310000007376486772100002185_);}
	.st51{opacity:0.56;fill:#FFFFFF;enable-background:new    ;}
	.st52{fill:url(#SVGID_00000006667149627838395690000009559572251066464653_);}
	.st53{fill:#90589A;}
	.st54{font-family:'OkayJelly';}
	.st55{font-size:200px;}
</style>
<g id="Background" class="st0">
	<g class="st1">
		<g>
			<rect class="st2" width="3710" height="3710"/>
		</g>
	</g>
</g>
<g id="Illustration">
	<g>
		
			<linearGradient id="SVGID_1_" gradientUnits="userSpaceOnUse" x1="3592.7026" y1="-545.2565" x2="1127.7756" y2="2516.0288" gradientTransform="matrix(1 0 0 -1 0 3710)">
			<stop  offset="0" style="stop-color:#B37CFF"/>
			<stop  offset="1" style="stop-color:#F895E7"/>
		</linearGradient>
		<path class="st3" d="M2914.6,3048c-56.6,59.6-110.2,98-152.5,128.4c-497.5,357-1086.2,252.9-1211.4,227.5
			c-184.8-37.5-541.9-110.1-800.1-413.7C360,2530.8,420.8,1807.1,723.8,1329.3c55.4-87.4,348.2-572.4,943.3-650.2
			C2027.2,632,2447,727,2750.9,981.7C3389.1,1516.3,3343.6,2596.3,2914.6,3048z"/>
		<g>
			<g>
				
					<linearGradient id="SVGID_00000178170338714939853490000014010789265398424704_" gradientUnits="userSpaceOnUse" x1="1783.2178" y1="27.9252" x2="1859.3013" y2="2741.5718" gradientTransform="matrix(1 0 0 -1 0 3710)">
					<stop  offset="0" style="stop-color:#2B3582"/>
					<stop  offset="1" style="stop-color:#150E42"/>
				</linearGradient>
				<path style="fill:url(#SVGID_00000178170338714939853490000014010789265398424704_);" d="M3063.2,3127c0,24.2-19.8,44-44.1,44
					H636.7c-24.2,0-44.1-19.8-44.1-44l-19.8-1369.1c0-24.2,28.5-71.5,80.8-67.9l2328.4-60.2c30.4-0.8,59.8,10.9,81.3,32.4
					s33.3,50.8,32.6,81.2L3063.2,3127z"/>
				
					<linearGradient id="SVGID_00000044176883828188804930000013542451887377010365_" gradientUnits="userSpaceOnUse" x1="2865.0396" y1="2443.354" x2="-238.6837" y2="-1101.6256" gradientTransform="matrix(1 0 0 -1 0 3710)">
					<stop  offset="0" style="stop-color:#FDF53F"/>
					<stop  offset="1" style="stop-color:#D93C65"/>
				</linearGradient>
				<path style="fill:url(#SVGID_00000044176883828188804930000013542451887377010365_);" d="M3019.7,3084.7
					c0,22.9-18.8,41.7-41.7,41.7H694.1c-22.9,0-41.7-18.8-41.7-41.7l-18.7-1242.9c2.2-74.8,67.8-101.7,107.5-100.1l2231.5-59.9
					c21.4-0.6,42,7.7,57.1,22.7c15.1,15.1,23.4,35.7,22.9,57.1L3019.7,3084.7z"/>
				<g>
					<g>
						<path class="st2" d="M677.1,2491.6c-1.8,0-3.4-1.5-3.4-3.3l-1.5-100.8c0-1.9,1.5-3.4,3.3-3.4c1.8,0,3.4,1.5,3.4,3.3l1.5,100.8
							C680.5,2490,679,2491.5,677.1,2491.6C677.2,2491.6,677.1,2491.6,677.1,2491.6z"/>
					</g>
					<g>
						<path class="st2" d="M673.5,2244.5c-1.8,0-3.4-1.5-3.4-3.3l-5.7-386.1c0.1-25.8,8.1-46.4,23.6-61.3
							c28.3-27.1,72.6-25.8,74.4-25.7l712.6-19.1c1.9,0,3.4,1.4,3.5,3.3c0.1,1.9-1.4,3.4-3.3,3.5L762.5,1775
							c-2-0.1-43.5-1.4-69.7,23.8c-14.2,13.6-21.4,32.6-21.5,56.4l5.7,386C676.9,2243,675.4,2244.5,673.5,2244.5
							C673.5,2244.5,673.5,2244.5,673.5,2244.5z"/>
					</g>
				</g>
				<path class="st6" d="M753.1,3015.8c2.4-102.7,1.5-1012.4-4.4-1091c-5.9-78.6,116.5-93.3,304.3-102.1
					c187.9-8.8,1772.9-43.8,1813.7-47.2c91.7-7.4,110.7,129.7,101.5,427.3c-6.9,223.6-18.3,592-23.6,761.4
					c-1.6,50.4-42.8,90.5-93.3,90.6c-381.4,1-1843.3,5.2-1940.6,8.1C798.8,3066.4,752.1,3056.5,753.1,3015.8z"/>
			</g>
			
				<linearGradient id="SVGID_00000085208563873243687690000013338023267424569517_" gradientUnits="userSpaceOnUse" x1="1842.6388" y1="340.0695" x2="1970.7455" y2="2323.1836" gradientTransform="matrix(1 0 0 -1 0 3710)">
				<stop  offset="0" style="stop-color:#2B3582"/>
				<stop  offset="1" style="stop-color:#150E42"/>
			</linearGradient>
			<path style="fill:url(#SVGID_00000085208563873243687690000013338023267424569517_);" d="M3246.2,3284.6H457.9
				c-5.6,0-10.3-4.6-10.3-10.3v-99.8c0-5.6,4.6-10.3,10.3-10.3h2788.3c5.6,0,10.3,4.6,10.3,10.3v99.8
				C3256.4,3280,3251.8,3284.6,3246.2,3284.6z"/>
			<g>
				<path class="st8" d="M769.6,1966.7L795,2999.3c0.8,33.8,25.8,60.8,56,60.5l409.7-3.6c30.4-0.3,54.7-27.9,54.6-61.8l-4.6-1048.9
					c-0.2-35.2-26.5-63.3-57.9-61.8l-430.5,19.9C792.2,1905,768.7,1933.1,769.6,1966.7z"/>
				<path class="st8" d="M1366.9,1953.4l20.7,1046.3c0.7,34,25.8,61.2,56.2,60.8l1456.9-17.6c30.7-0.4,55.2-28.7,54.4-63.1
					l-23.8-1052.7c-0.8-34-26-61.1-56.4-60.6l-1453.8,23.9C1390.5,1891,1366.2,1919.1,1366.9,1953.4z"/>
			</g>
		</g>
		<g>
			
				<linearGradient id="SVGID_00000034066995327269511680000015866694206371855775_" gradientUnits="userSpaceOnUse" x1="3676.9172" y1="517.1518" x2="3787.0396" y2="640.7036" gradientTransform="matrix(1 0 0 -1 -773.542 3710)">
				<stop  offset="0" style="stop-color:#F9B776"/>
				<stop  offset="1" style="stop-color:#F47960"/>
			</linearGradient>
			<path style="fill:url(#SVGID_00000034066995327269511680000015866694206371855775_);" d="M3044.5,3346.4
				c-0.3-0.1-180.4-315.4-204.7-345.1c-4.1-5-10.4-7.5-16.8-6.8l-50.2,6l-59,127.7l98.3-57.3c-9.7,67.3,116.6,167.3,159.9,203.8
				c4.4,3.7,4.8,10.3,0.8,14.5l-17.3,18.1c28.4,28.8,61.2,47.3,98.2,55.8L3044.5,3346.4z"/>
			
				<linearGradient id="SVGID_00000133505272796126776320000001568202295631478666_" gradientUnits="userSpaceOnUse" x1="-4444.4683" y1="5278.4854" x2="-4466.2563" y2="4944.4043" gradientTransform="matrix(-0.8974 -0.4412 0.4412 -0.8974 -3266.8191 6020.2954)">
				<stop  offset="0" style="stop-color:#2B3582"/>
				<stop  offset="1" style="stop-color:#150E42"/>
			</linearGradient>
			<path style="fill:url(#SVGID_00000133505272796126776320000001568202295631478666_);" d="M2965.4,3297.6c0,0-11,3.6-14.8,13.4
				c-1.8,4.7,0.1,10,4.2,13c18.2,13,78.1,55.1,105.8,63.3c2.3,0.7,4.4-1.4,3.9-3.7c-1.4-6.4-6-19.3-20.8-38.1l1.3,2.7
				c1.7,3.4-2,6.9-5.3,5.1C3021.3,3342.9,2983.6,3320,2965.4,3297.6z"/>
			
				<linearGradient id="SVGID_00000166651937385477919460000002490273377409603003_" gradientUnits="userSpaceOnUse" x1="16263.7588" y1="587.2947" x2="17234.8457" y2="1195.2107" gradientTransform="matrix(1 0 0 -1 -13203.5977 3710)">
				<stop  offset="0" style="stop-color:#F9B776"/>
				<stop  offset="1" style="stop-color:#F47960"/>
			</linearGradient>
			<path style="fill:url(#SVGID_00000166651937385477919460000002490273377409603003_);" d="M2974.3,3423.8
				c-0.3-0.2-27.3-65.3-27.6-65.5c-24.8-150.8-85.2-279.9-103-313.9c-3-5.7-8.7-9.5-15.1-10l-50.4-4.3l-83.7,113.1l107.9-36.2
				c-23.1,63.9,80.3,187.5,115.4,232c3.6,4.5,2.6,11.1-2.2,14.4l-20.6,14.2c22,33.9,50.3,58.7,84.8,74.5L2974.3,3423.8z"/>
			
				<linearGradient id="SVGID_00000121978997822518942500000015924648098970464933_" gradientUnits="userSpaceOnUse" x1="-3142.551" y1="7029.5029" x2="-3164.3372" y2="6695.4482" gradientTransform="matrix(-0.7895 -0.6137 0.6137 -0.7895 -3794.116 6946.2158)">
				<stop  offset="0" style="stop-color:#2B3582"/>
				<stop  offset="1" style="stop-color:#150E42"/>
			</linearGradient>
			<path style="fill:url(#SVGID_00000121978997822518942500000015924648098970464933_);" d="M2906.8,3360c0,0-11.5,1.3-17.2,10.1
				c-2.7,4.2-1.9,9.9,1.5,13.6c15.2,16.4,65.4,69.7,90.8,83.4c2.1,1.1,4.6-0.5,4.6-2.8c-0.1-6.6-2-20.1-12.7-41.5l0.8,2.9
				c1,3.7-3.4,6.4-6.2,3.9C2952.4,3415.6,2920.1,3385.6,2906.8,3360z"/>
			<g>
				
					<linearGradient id="SVGID_00000178180026454255876570000016877664262086004924_" gradientUnits="userSpaceOnUse" x1="2900.1819" y1="824.5206" x2="2323.3198" y2="408.8938" gradientTransform="matrix(1 0 0 -1 0 3710)">
					<stop  offset="0" style="stop-color:#CB236D"/>
					<stop  offset="1" style="stop-color:#4C246D"/>
				</linearGradient>
				<path style="fill:url(#SVGID_00000178180026454255876570000016877664262086004924_);" d="M2542.2,3006.3
					c0,0-45.6,67.8-49.4,98.8c-3.7,30.9,12.6,41.6,60.4,45.6c142.1,11.7,212.1-30.8,212.1-30.8c9.7-62,16.6-77.7,97.8-111.4
					c0,0-102.7,8.1-123.3,0.1C2719.1,3000.5,2542.2,3006.3,2542.2,3006.3z"/>
			</g>
			<g>
				
					<linearGradient id="SVGID_00000120556071814551526920000008233447941343927978_" gradientUnits="userSpaceOnUse" x1="-7567.4785" y1="2249.1206" x2="-7497.6875" y2="2074.05" gradientTransform="matrix(-0.9446 -0.3283 0.3283 -0.9446 -5113.9219 2171.9731)">
					<stop  offset="0" style="stop-color:#2B3582"/>
					<stop  offset="1" style="stop-color:#150E42"/>
				</linearGradient>
				<path style="fill:url(#SVGID_00000120556071814551526920000008233447941343927978_);" d="M2724.1,2626.2c0,0-31.8-37.6-65.5,8.5
					c-6.1,8.4-29.6,1.5-38.2,18.9c-4.4,9-14.1,14.2-23.9,12.3c-24.6-4.5-64.9-4.9-84.8,33.7c-15.2,29.5-3.5,46.7,11.7,56.6
					c11.1,7.2,15.1,21.9,8.4,33.3c-6.5,11-7.7,25.8,9,43.7c37.4,40.1,111.5-25.4,111.5-25.4l58.8-138.9L2724.1,2626.2z"/>
				
					<linearGradient id="SVGID_00000083770223734001373140000012255260662626489224_" gradientUnits="userSpaceOnUse" x1="2911.2275" y1="1410.63" x2="2505.4482" y2="522.989" gradientTransform="matrix(1 0 0 -1 0 3710)">
					<stop  offset="0" style="stop-color:#53D8FF"/>
					<stop  offset="1" style="stop-color:#3840F7"/>
				</linearGradient>
				<path style="fill:url(#SVGID_00000083770223734001373140000012255260662626489224_);" d="M2665.5,2997.3
					c0,0,53.1-50.6,79.3-84.1c14.1-18.1,18.6-41.9,12-64c-11.9-40.2-33.1-81.9-35.1-88.4c-3-9.9-62.5-9.5-62.5-9.5
					s-117.2,76.1-163.2,204.9l51.7,16.1c0,0,30.6-51.3,60.8-84c0,0-52.3,69.1-54.2,97.4L2665.5,2997.3z"/>
				
					<linearGradient id="SVGID_00000043420831033954367930000009115694235786345344_" gradientUnits="userSpaceOnUse" x1="-5607.6528" y1="721.074" x2="-5324.9272" y2="721.074" gradientTransform="matrix(-1 0 0 -1 -3017.1343 3710)">
					<stop  offset="0" style="stop-color:#F9B776"/>
					<stop  offset="1" style="stop-color:#F47960"/>
				</linearGradient>
				<path style="fill:url(#SVGID_00000043420831033954367930000009115694235786345344_);" d="M2766.7,3017.2l-39.9-43.4l-46.1,12.4
					c0,0-53.7,8.3-84.5,0c-30.8-8.3-30.8-8.3-30.8-8.3l-69.5-21.6l-10.9,30.8c-2.8,7.8,0,16.5,6.8,21.3c6,4.3,13.1,9,17.6,10.9
					c9.2,4,210.8,1.3,210.8,1.3L2766.7,3017.2z"/>
				
					<linearGradient id="SVGID_00000111180258478471905030000014611355104800249000_" gradientUnits="userSpaceOnUse" x1="-7470.2974" y1="1558.8301" x2="-7456.4771" y2="1659.9393" gradientTransform="matrix(-0.9974 -7.170000e-02 7.170000e-02 -0.9974 -4857.0527 3872.9539)">
					<stop  offset="0" style="stop-color:#F9B776"/>
					<stop  offset="1" style="stop-color:#F47960"/>
				</linearGradient>
				<path style="fill:url(#SVGID_00000111180258478471905030000014611355104800249000_);" d="M2700.2,2679.8l-40,74.4
					c2.6,16.2,43.6,16.7,49.9,7c0.6-1,1-2.1,1.3-3.3l23.9-49.7c1-4.9-12.3-21.2-16.6-23.5l-15.9-8.5
					C2696.5,2672.9,2722.1,2672.7,2700.2,2679.8z"/>
				<g>
					
						<linearGradient id="SVGID_00000133486702397715873420000017289937834029006012_" gradientUnits="userSpaceOnUse" x1="-7138.3931" y1="4149.8164" x2="-7008.2622" y2="4381.4062" gradientTransform="matrix(-0.5458 -0.8379 0.8379 -0.5458 -4677.2998 -948.6577)">
						<stop  offset="0" style="stop-color:#F9B776"/>
						<stop  offset="1" style="stop-color:#F47960"/>
					</linearGradient>
					<path style="fill:url(#SVGID_00000133486702397715873420000017289937834029006012_);" d="M2781.2,2662.3
						c0,0,4.5,25.1-15.2,57.1c-19.8,32-39.4,30.5-49.4,19.1c-10-11.4-22-30.4-16.5-62.3C2705.4,2644.4,2774.3,2630.2,2781.2,2662.3z
						"/>
					
						<linearGradient id="SVGID_00000093165891848375586530000002138034000295094680_" gradientUnits="userSpaceOnUse" x1="-7110.4097" y1="4351.4956" x2="-7045.3442" y2="4188.2817" gradientTransform="matrix(-0.5458 -0.8379 0.8379 -0.5458 -4677.2998 -948.6577)">
						<stop  offset="0" style="stop-color:#2B3582"/>
						<stop  offset="1" style="stop-color:#150E42"/>
					</linearGradient>
					<path style="fill:url(#SVGID_00000093165891848375586530000002138034000295094680_);" d="M2723.9,2679.7c0,0,32-42,56.6-5.4
						l-0.4,12.7c0,0,32-1.5,28.5-30.9c-3.5-29.5-29.6-49.6-65.7-39.5c-36.2,10.1-57.3,21.5-61.4,46.6c-4.1,25.1,16.4,21,16.4,21
						s7.8-17.3,17.3-18.5s6,12.5,6,12.5L2723.9,2679.7z"/>
					
						<linearGradient id="SVGID_00000088128677578690684530000004866321190188083360_" gradientUnits="userSpaceOnUse" x1="-7110.6919" y1="4134.2559" x2="-6980.564" y2="4365.8403" gradientTransform="matrix(-0.5458 -0.8379 0.8379 -0.5458 -4677.2998 -948.6577)">
						<stop  offset="0" style="stop-color:#F9B776"/>
						<stop  offset="1" style="stop-color:#F47960"/>
					</linearGradient>
					<path style="fill:url(#SVGID_00000088128677578690684530000004866321190188083360_);" d="M2716.5,2678.6c0,0,16.6-21.5,1.5-26
						c-15.1-4.5-14.5,21.1-13.5,30.6L2716.5,2678.6z"/>
				</g>
			</g>
			<g>
				
					<linearGradient id="SVGID_00000145739435177035446620000012624809442410066101_" gradientUnits="userSpaceOnUse" x1="-5656.355" y1="991.2596" x2="-5804.2573" y2="950.7234" gradientTransform="matrix(-0.9988 -4.940000e-02 4.940000e-02 -0.9988 -3095.052 3696.3062)">
					<stop  offset="0" style="stop-color:#2B3582"/>
					<stop  offset="1" style="stop-color:#150E42"/>
				</linearGradient>
				<path style="fill:url(#SVGID_00000145739435177035446620000012624809442410066101_);" d="M2634.6,3034.4c0.1,0,0.3,0,0.4,0
					l183.6-0.2c4.5,0,8.2-3.7,8.2-8.2c0-4.5-3.7-8.3-8.2-8.2L2635,3018c-4.5,0-8.2,3.7-8.2,8.2
					C2626.8,3030.6,2630.3,3034.2,2634.6,3034.4z"/>
				
					<linearGradient id="SVGID_00000127743591701370028960000016784154947595741624_" gradientUnits="userSpaceOnUse" x1="5546.625" y1="748.1469" x2="6876.8525" y2="860.0648" gradientTransform="matrix(-1 0 0 -1 8533.9756 3710)">
					<stop  offset="0" style="stop-color:#2B3582"/>
					<stop  offset="1" style="stop-color:#150E42"/>
				</linearGradient>
				<path style="fill:url(#SVGID_00000127743591701370028960000016784154947595741624_);" d="M2983.6,2867.8h-152.9
					c-11.3,0-21.5,6.5-26.4,16.7l-70.7,149.9h190c7.3,0,13.8-4.4,16.5-11.2l54.8-138.7C2998.2,2876.4,2992.3,2867.8,2983.6,2867.8z"
					/>
				
					<linearGradient id="SVGID_00000144312204385760425640000001487395390312084402_" gradientUnits="userSpaceOnUse" x1="-5884.2397" y1="792.2679" x2="-5931.8564" y2="720.5629" gradientTransform="matrix(-1 0 0 -1 -3017.1343 3710)">
					<stop  offset="0" style="stop-color:#53D8FF"/>
					<stop  offset="1" style="stop-color:#3840F7"/>
				</linearGradient>
				<path style="fill:url(#SVGID_00000144312204385760425640000001487395390312084402_);" d="M2875.9,2944.6
					c-3.3,10.3-0.9,20.3,5.5,22.3c6.3,2,14.2-4.7,17.5-14.9c3.3-10.3,0.9-20.3-5.5-22.3C2887.1,2927.6,2879.2,2934.3,2875.9,2944.6z
					"/>
			</g>
		</g>
		<g>
			<g>
				
					<linearGradient id="SVGID_00000116940704982981624970000005849203555223867011_" gradientUnits="userSpaceOnUse" x1="1394.1064" y1="596.7224" x2="1389.4995" y2="525.3141" gradientTransform="matrix(1 0 0 -1 0 3710)">
					<stop  offset="0" style="stop-color:#2B3582"/>
					<stop  offset="1" style="stop-color:#150E42"/>
				</linearGradient>
				<path style="fill:url(#SVGID_00000116940704982981624970000005849203555223867011_);" d="M2005.2,3241.6H763.9
					c-11.1,0-20.1,9-20.1,20.1c0,11.1,9,20.1,20.1,20.1h1241.3c11.1,0,20.1-9,20.1-20.1C2025.3,3250.6,2016.3,3241.6,2005.2,3241.6z
					"/>
				
					<linearGradient id="SVGID_00000023982914530020844370000007464816310645933241_" gradientUnits="userSpaceOnUse" x1="1395.9124" y1="793.962" x2="1379.7876" y2="443.831" gradientTransform="matrix(1 0 0 -1 0 3710)">
					<stop  offset="0" style="stop-color:#CB236D"/>
					<stop  offset="1" style="stop-color:#4C246D"/>
				</linearGradient>
				<path style="fill:url(#SVGID_00000023982914530020844370000007464816310645933241_);" d="M1829.4,3037.3H939.7
					c-26.8,0-48.6,21.7-48.6,48.6v155.7h986.8v-155.7C1877.9,3059.1,1856.2,3037.3,1829.4,3037.3z"/>
				
					<linearGradient id="SVGID_00000144307985696669239470000013958649983312097430_" gradientUnits="userSpaceOnUse" x1="1393.8285" y1="889.147" x2="1380.0074" y2="596.6033" gradientTransform="matrix(1 0 0 -1 0 3710)">
					<stop  offset="0" style="stop-color:#CB236D"/>
					<stop  offset="1" style="stop-color:#4C246D"/>
				</linearGradient>
				<path style="fill:url(#SVGID_00000144307985696669239470000013958649983312097430_);" d="M1763.5,2950.6h-758
					c-26.8,0-48.6,21.7-48.6,48.6v38.2h855.2v-38.2C1812.1,2972.3,1790.4,2950.6,1763.5,2950.6z"/>
				
					<linearGradient id="SVGID_00000164503958243721055290000016692330202512220320_" gradientUnits="userSpaceOnUse" x1="1400.1055" y1="1094.1918" x2="1379.3439" y2="810.4486" gradientTransform="matrix(1 0 0 -1 0 3710)">
					<stop  offset="0" style="stop-color:#2B3582"/>
					<stop  offset="1" style="stop-color:#150E42"/>
				</linearGradient>
				<path style="fill:url(#SVGID_00000164503958243721055290000016692330202512220320_);" d="M1612.9,2950.6h-456.7v-243.3
					c0-7,5.7-12.7,12.7-12.7h431.4c7,0,12.7,5.7,12.7,12.7V2950.6z"/>
				<g>
					
						<linearGradient id="SVGID_00000085220345816220411860000012506299823243613102_" gradientUnits="userSpaceOnUse" x1="1116.9115" y1="811.7328" x2="1043.6267" y2="497.0389" gradientTransform="matrix(1 0 0 -1 0 3710)">
						<stop  offset="0" style="stop-color:#2B3582"/>
						<stop  offset="1" style="stop-color:#150E42"/>
					</linearGradient>
					
						<rect x="1015.9" y="3079.8" style="fill:url(#SVGID_00000085220345816220411860000012506299823243613102_);" width="79.7" height="161.9"/>
					
						<linearGradient id="SVGID_00000118360620721518167290000018139717089152076441_" gradientUnits="userSpaceOnUse" x1="1196.9397" y1="793.0952" x2="1123.655" y2="478.4021" gradientTransform="matrix(1 0 0 -1 0 3710)">
						<stop  offset="0" style="stop-color:#2B3582"/>
						<stop  offset="1" style="stop-color:#150E42"/>
					</linearGradient>
					
						<rect x="1124.1" y="3079.8" style="fill:url(#SVGID_00000118360620721518167290000018139717089152076441_);" width="32" height="161.9"/>
					
						<linearGradient id="SVGID_00000146484131015438461880000005759326667008853912_" gradientUnits="userSpaceOnUse" x1="1239.7743" y1="783.1209" x2="1166.4896" y2="468.4275" gradientTransform="matrix(1 0 0 -1 0 3710)">
						<stop  offset="0" style="stop-color:#2B3582"/>
						<stop  offset="1" style="stop-color:#150E42"/>
					</linearGradient>
					
						<rect x="1169.3" y="3079.8" style="fill:url(#SVGID_00000146484131015438461880000005759326667008853912_);" width="32" height="161.9"/>
					
						<linearGradient id="SVGID_00000019650376526080930700000014001770483619018933_" gradientUnits="userSpaceOnUse" x1="1282.6074" y1="773.1461" x2="1209.3228" y2="458.4528" gradientTransform="matrix(1 0 0 -1 0 3710)">
						<stop  offset="0" style="stop-color:#2B3582"/>
						<stop  offset="1" style="stop-color:#150E42"/>
					</linearGradient>
					
						<rect x="1214.5" y="3079.8" style="fill:url(#SVGID_00000019650376526080930700000014001770483619018933_);" width="32" height="161.9"/>
				</g>
			</g>
			<g>
				<g>
					
						<linearGradient id="SVGID_00000031923256329108687050000015600839183164126130_" gradientUnits="userSpaceOnUse" x1="-196.6956" y1="2923.0679" x2="-96.4493" y2="2923.0679" gradientTransform="matrix(0.7357 -0.6774 -0.6774 -0.7357 3062.7222 4395.6714)">
						<stop  offset="0" style="stop-color:#2B3582"/>
						<stop  offset="1" style="stop-color:#150E42"/>
					</linearGradient>
					<path style="fill:url(#SVGID_00000031923256329108687050000015600839183164126130_);" d="M639.8,1962.3
						c-11.1,10.2-12.1,27.5-2.2,38.9l624.9,729.7c10.3,11.9,28.5,12.9,40.1,2.2l53.2-49l-688.2-747.5L639.8,1962.3z"/>
					
						<linearGradient id="SVGID_00000091712279200608433310000000543144217689230500_" gradientUnits="userSpaceOnUse" x1="-128.8863" y1="3007.9683" x2="114.2364" y2="3007.9683" gradientTransform="matrix(0.7357 -0.6774 -0.6774 -0.7357 3062.7222 4395.6714)">
						<stop  offset="0" style="stop-color:#2B3582"/>
						<stop  offset="1" style="stop-color:#150E42"/>
					</linearGradient>
					<path style="fill:url(#SVGID_00000091712279200608433310000000543144217689230500_);" d="M725.4,1727.9
						c-21.3-22.2-56.4-23.3-79-2.4l-56,51.6c-22.6,20.8-24.4,55.9-4.1,78.9l745.6,850.3l156.3-143.9c12.7-11.7,13.3-31.5,1.3-43.9
						L725.4,1727.9z"/>
					
						<linearGradient id="SVGID_00000089560475468678584290000003024192432045914555_" gradientUnits="userSpaceOnUse" x1="165.4329" y1="3519.4905" x2="-58.8474" y2="2864.772" gradientTransform="matrix(0.7357 -0.6774 -0.6774 -0.7357 3062.7222 4395.6714)">
						<stop  offset="0" style="stop-color:#53D8FF"/>
						<stop  offset="1" style="stop-color:#3840F7"/>
					</linearGradient>
					<path style="fill:url(#SVGID_00000089560475468678584290000003024192432045914555_);" d="M778.9,1906l-5.9,5.4
						c-18.2,16.7-19.3,45-2.6,63.1l393.5,427.4c16.7,18.2,45,19.3,63.1,2.6l5.9-5.4c18.2-16.7,19.3-45,2.6-63.1L842,1908.6
						C825.3,1890.5,797,1889.3,778.9,1906z"/>
					
						<rect x="991.7" y="1820.3" transform="matrix(0.7357 -0.6773 0.6773 0.7357 -1194.7932 1248.9141)" class="st35" width="22.5" height="670.3"/>
				</g>
				<g>
					
						<linearGradient id="SVGID_00000004519314740385138070000003460033849776001924_" gradientUnits="userSpaceOnUse" x1="-240.4243" y1="2424.9812" x2="157.9648" y2="2424.9812" gradientTransform="matrix(0.7357 -0.6774 -0.6774 -0.7357 3062.7222 4395.6714)">
						<stop  offset="0" style="stop-color:#53D8FF"/>
						<stop  offset="1" style="stop-color:#3840F7"/>
					</linearGradient>
					<circle style="fill:url(#SVGID_00000004519314740385138070000003460033849776001924_);" cx="1389.7" cy="2639.5" r="199.2"/>
					<ellipse class="st35" cx="1389.7" cy="2639.5" rx="152.2" ry="152.2"/>
				</g>
			</g>
			<g>
				<g>
					
						<linearGradient id="SVGID_00000013158580645739839560000000322226400034909329_" gradientUnits="userSpaceOnUse" x1="367.638" y1="3372.9153" x2="395.2774" y2="3566.3904" gradientTransform="matrix(0.7357 -0.6774 -0.6774 -0.7357 3062.7222 4395.6714)">
						<stop  offset="0" style="stop-color:#2B3582"/>
						<stop  offset="1" style="stop-color:#150E42"/>
					</linearGradient>
					<path style="fill:url(#SVGID_00000013158580645739839560000000322226400034909329_);" d="M631.3,1775.3l39.3,42.7
						c8.6,9.3,23.2,9.7,32.2,0.9l548.4-542.7c8.7-8.5,9.1-22.3,0.8-31.3l-20.5-22.3L631.3,1775.3z"/>
					
						<linearGradient id="SVGID_00000106118794798942126610000006063702715190231735_" gradientUnits="userSpaceOnUse" x1="-13.7996" y1="3646.0012" x2="938.4517" y2="3646.0012" gradientTransform="matrix(0.7357 -0.6774 -0.6774 -0.7357 3062.7222 4395.6714)">
						<stop  offset="0" style="stop-color:#2B3582"/>
						<stop  offset="1" style="stop-color:#150E42"/>
					</linearGradient>
					<path style="fill:url(#SVGID_00000106118794798942126610000006063702715190231735_);" d="M1262.4,1054.9l41.4,45
						c16.7,18.2,15.8,46.3-2,63.4l-653,631.2L533.3,1669c-9.4-10.2-8.5-26.1,1.9-35.2l663.8-582.1
						C1217.5,1035.3,1245.7,1036.7,1262.4,1054.9z"/>
					
						<linearGradient id="SVGID_00000178888457911087043060000002857863710783118522_" gradientUnits="userSpaceOnUse" x1="484.0247" y1="3840.4128" x2="426.8584" y2="3505.5823" gradientTransform="matrix(0.7357 -0.6774 -0.6774 -0.7357 3062.7222 4395.6714)">
						<stop  offset="0" style="stop-color:#53D8FF"/>
						<stop  offset="1" style="stop-color:#3840F7"/>
					</linearGradient>
					<path style="fill:url(#SVGID_00000178888457911087043060000002857863710783118522_);" d="M1073.3,1207.4l-358.8,330.4
						c-15.9,14.6-16.9,39.3-2.3,55.2c14.6,15.9,39.3,16.9,55.2,2.3l358.8-330.4c15.9-14.6,16.9-39.3,2.3-55.2
						C1113.9,1193.8,1089.2,1192.8,1073.3,1207.4z"/>
					
						<rect x="637.5" y="1392.4" transform="matrix(0.7357 -0.6773 0.6773 0.7357 -705.8941 993.788)" class="st35" width="565.9" height="18"/>
				</g>
				<g>
					
						<linearGradient id="SVGID_00000112614679417758373220000009821926513722682761_" gradientUnits="userSpaceOnUse" x1="-165.7918" y1="3618.7754" x2="154.1279" y2="3618.7754" gradientTransform="matrix(0.7357 -0.6774 -0.6774 -0.7357 3062.7222 4395.6714)">
						<stop  offset="0" style="stop-color:#53D8FF"/>
						<stop  offset="1" style="stop-color:#3840F7"/>
					</linearGradient>
					<circle style="fill:url(#SVGID_00000112614679417758373220000009821926513722682761_);" cx="607.1" cy="1737.3" r="160"/>
					
						<ellipse transform="matrix(0.7071 -0.7071 0.7071 0.7071 -1050.649 938.066)" class="st35" cx="607" cy="1737.3" rx="122.2" ry="122.2"/>
				</g>
			</g>
			<g>
				<g>
					
						<linearGradient id="SVGID_00000033360317686789841910000002533327665152799363_" gradientUnits="userSpaceOnUse" x1="2535.6648" y1="2635.1753" x2="3099.7993" y2="2635.1753" gradientTransform="matrix(0.8544 0.5197 0.5197 -0.8544 -2277.3684 1984.1248)">
						<stop  offset="0" style="stop-color:#2B3582"/>
						<stop  offset="1" style="stop-color:#150E42"/>
					</linearGradient>
					<path style="fill:url(#SVGID_00000033360317686789841910000002533327665152799363_);" d="M1753.2,1322.9l-25,41
						c-10.1,16.5-28.3,24-41,16.7l-468.5-264.8l69.6-114.4c5.6-9.3,15.9-13.2,22.8-8.7l438,286.1
						C1761.5,1286.8,1763.3,1306.3,1753.2,1322.9z"/>
				</g>
				<g>
					
						<linearGradient id="SVGID_00000146471423549018865280000013775152402426831295_" gradientUnits="userSpaceOnUse" x1="2749.7676" y1="2812.7046" x2="2339.7651" y2="2423.4321" gradientTransform="matrix(0.8544 0.5197 0.5197 -0.8544 -2277.3684 1984.1248)">
						<stop  offset="0" style="stop-color:#53D8FF"/>
						<stop  offset="1" style="stop-color:#3840F7"/>
					</linearGradient>
					<circle style="fill:url(#SVGID_00000146471423549018865280000013775152402426831295_);" cx="1281.8" cy="1064.5" r="125.6"/>
					<ellipse class="st35" cx="1281.7" cy="1064.6" rx="95.9" ry="95.9"/>
				</g>
				<g>
					
						<linearGradient id="SVGID_00000105396783822160183270000001477017338562135196_" gradientUnits="userSpaceOnUse" x1="2892.2927" y1="2445.8787" x2="3276.8018" y2="2781.9873" gradientTransform="matrix(0.8544 0.5197 0.5197 -0.8544 -2277.3684 1984.1248)">
						<stop  offset="0" style="stop-color:#CB236D"/>
						<stop  offset="1" style="stop-color:#4C246D"/>
					</linearGradient>
					<path style="fill:url(#SVGID_00000105396783822160183270000001477017338562135196_);" d="M1811.1,1291.9l-45.6-27.5
						c-1-0.6-2.4-0.3-3,0.7l-82.9,137.4c-0.6,1-0.3,2.4,0.7,3l45.6,27.5c1,0.6,2.4,0.3,3-0.7l82.9-137.4
						C1812.5,1293.9,1812.2,1292.5,1811.1,1291.9z"/>
					
						<linearGradient id="SVGID_00000126294898143068090210000017853672480136323470_" gradientUnits="userSpaceOnUse" x1="3656.7371" y1="2739.1328" x2="3317.8997" y2="2743.2151" gradientTransform="matrix(0.8544 0.5197 0.5197 -0.8544 -2277.3684 1984.1248)">
						<stop  offset="0" style="stop-color:#53D8FF"/>
						<stop  offset="1" style="stop-color:#3840F7"/>
					</linearGradient>
					<polygon style="fill:url(#SVGID_00000126294898143068090210000017853672480136323470_);" points="1871.9,1347.9 1976.8,1272.2 
						2122.1,1449 2100.1,1475 1968.7,1334 1887.5,1393.4 					"/>
					
						<linearGradient id="SVGID_00000062171544425358299930000012857561764345335445_" gradientUnits="userSpaceOnUse" x1="3654.1086" y1="2521.4636" x2="3315.2747" y2="2525.5461" gradientTransform="matrix(0.8544 0.5197 0.5197 -0.8544 -2277.3684 1984.1248)">
						<stop  offset="0" style="stop-color:#53D8FF"/>
						<stop  offset="1" style="stop-color:#3840F7"/>
					</linearGradient>
					<polygon style="fill:url(#SVGID_00000062171544425358299930000012857561764345335445_);" points="1805.1,1459.7 1788.9,1588.1 
						2013.7,1630.9 2026,1599.1 1839.3,1551.3 1852.5,1451.6 					"/>
					
						<linearGradient id="SVGID_00000088832916358224060490000003032642962798146441_" gradientUnits="userSpaceOnUse" x1="3184.5378" y1="2635.1614" x2="3277.1868" y2="2635.1614" gradientTransform="matrix(0.8544 0.5197 0.5197 -0.8544 -2277.3684 1984.1248)">
						<stop  offset="0" style="stop-color:#2B3582"/>
						<stop  offset="1" style="stop-color:#150E42"/>
					</linearGradient>
					<path style="fill:url(#SVGID_00000088832916358224060490000003032642962798146441_);" d="M1771.2,1456.4
						c21.6,17.7,51.7,23.8,79.8,13.4c42.1-15.6,63.6-62.3,48-104.4c-7.9-21.3-23.7-37.3-43-45.9L1771.2,1456.4z"/>
					
						<linearGradient id="SVGID_00000021083623301239087700000016203306665148257437_" gradientUnits="userSpaceOnUse" x1="3227.2849" y1="2707.7473" x2="3074.8867" y2="2528.613" gradientTransform="matrix(0.8544 0.5197 0.5197 -0.8544 -2277.3684 1984.1248)">
						<stop  offset="0" style="stop-color:#CB236D"/>
						<stop  offset="1" style="stop-color:#4C246D"/>
					</linearGradient>
					<path style="fill:url(#SVGID_00000021083623301239087700000016203306665148257437_);" d="M1725,1427.9l-13.3,22
						c-2.4,4-0.9,9.3,3.4,11.8l40.8,24.6c4.2,2.6,9.6,1.4,12-2.5l105.8-175.5c2.4-4,0.9-9.3-3.4-11.8l-40.8-24.6
						c-4.2-2.6-9.6-1.4-12,2.5l-12.2,20.2L1725,1427.9z"/>
				</g>
			</g>
		</g>
		<g>
			<g class="st48">
				<g>
					<path class="st2" d="M1589.3,2564.5c-2.8,0-5.6-1.4-7.2-4c-2.4-3.9-4.8-7.8-7.2-11.7c-2.4-4-1.1-9.2,2.9-11.6
						c4-2.4,9.2-1.1,11.6,2.9c2.3,3.8,4.6,7.6,6.9,11.4c2.5,4,1.3,9.2-2.7,11.7C1592.4,2564.1,1590.9,2564.5,1589.3,2564.5z"/>
				</g>
				<g>
					<path class="st2" d="M1561.5,2514.6c-3.1,0-6.1-1.7-7.6-4.7c-4-8.1-7.8-16.4-11.4-24.8c-1.8-4.3,0.1-9.3,4.4-11.1
						c4.3-1.8,9.3,0.1,11.1,4.4c3.5,8,7.2,16.1,11,24c2.1,4.2,0.3,9.3-3.9,11.3C1564.1,2514.4,1562.8,2514.6,1561.5,2514.6z
						 M1534.8,2449.6c-3.5,0-6.8-2.2-8-5.8c-2.9-8.6-5.6-17.3-8.1-26c-1.3-4.5,1.3-9.2,5.8-10.4c4.5-1.3,9.2,1.3,10.4,5.8
						c2.4,8.4,5,16.9,7.8,25.2c1.5,4.4-0.9,9.2-5.3,10.7C1536.6,2449.4,1535.7,2449.6,1534.8,2449.6z M1516.6,2381.6
						c-3.9,0-7.5-2.8-8.3-6.8c-1.8-8.9-3.3-17.9-4.7-26.8c-0.7-4.6,2.5-8.9,7.1-9.6c4.6-0.7,8.9,2.5,9.6,7.1
						c1.3,8.7,2.8,17.4,4.5,26c0.9,4.6-2.1,9-6.6,9.9C1517.7,2381.6,1517.2,2381.6,1516.6,2381.6z M1507.3,2311.9
						c-4.4,0-8.1-3.4-8.4-7.9c-0.6-9-1-18.2-1.2-27.2c-0.1-4.7,3.6-8.5,8.3-8.6c4.7-0.1,8.5,3.6,8.6,8.3c0.2,8.8,0.6,17.7,1.2,26.4
						c0.3,4.7-3.2,8.7-7.9,9C1507.7,2311.9,1507.5,2311.9,1507.3,2311.9z M1507,2241.5c-0.2,0-0.4,0-0.5,0c-4.7-0.3-8.2-4.3-7.9-9
						c0.6-9,1.4-18.2,2.4-27.2c0.5-4.6,4.7-8,9.3-7.5c4.6,0.5,8,4.7,7.5,9.3c-1,8.7-1.7,17.6-2.3,26.3
						C1515.2,2238.1,1511.5,2241.5,1507,2241.5z M1516,2171.7c-0.5,0-1.1-0.1-1.6-0.2c-4.6-0.9-7.6-5.3-6.7-9.9
						c1.7-8.9,3.7-17.8,5.9-26.6c1.1-4.5,5.7-7.3,10.2-6.2c4.5,1.1,7.3,5.7,6.2,10.2c-2.1,8.5-4,17.2-5.7,25.8
						C1523.5,2168.9,1519.9,2171.7,1516,2171.7z M1533.9,2103.6c-0.9,0-1.8-0.1-2.7-0.4c-4.4-1.5-6.8-6.3-5.3-10.7
						c2.9-8.6,6-17.2,9.3-25.6c1.7-4.3,6.6-6.5,10.9-4.8c4.3,1.7,6.5,6.6,4.8,10.9c-3.2,8.2-6.2,16.5-9,24.8
						C1540.7,2101.4,1537.4,2103.6,1533.9,2103.6z M1560.4,2038.5c-1.2,0-2.5-0.3-3.7-0.8c-4.2-2-6-7.1-3.9-11.3
						c3.9-8.1,8.2-16.3,12.5-24.2c2.2-4.1,7.4-5.6,11.5-3.4c4.1,2.2,5.6,7.4,3.4,11.5c-4.2,7.7-8.3,15.6-12.1,23.5
						C1566.6,2036.7,1563.6,2038.5,1560.4,2038.5z M1595.2,1977.3c-1.6,0-3.2-0.4-4.6-1.4c-3.9-2.6-5-7.8-2.4-11.7
						c5-7.5,10.2-15.1,15.5-22.4c2.8-3.8,8-4.6,11.8-1.9c3.8,2.7,4.6,8,1.9,11.8c-5.2,7.1-10.2,14.4-15,21.7
						C1600.6,1975.9,1597.9,1977.3,1595.2,1977.3z M1637.5,1921.1c-1.9,0-3.9-0.7-5.5-2c-3.5-3-3.9-8.4-0.9-11.9
						c5.9-6.9,12-13.7,18.2-20.2c3.2-3.4,8.6-3.5,12-0.3c3.4,3.2,3.5,8.6,0.3,12c-6,6.3-12,12.9-17.7,19.6
						C1642.2,1920.1,1639.9,1921.1,1637.5,1921.1z M1686.7,1870.8c-2.3,0-4.6-0.9-6.3-2.8c-3.1-3.5-2.8-8.8,0.6-11.9
						c6.7-6,13.7-12,20.7-17.7c3.6-2.9,8.9-2.4,11.9,1.2c2.9,3.6,2.4,8.9-1.2,11.9c-6.8,5.5-13.6,11.3-20,17.1
						C1690.7,1870.1,1688.7,1870.8,1686.7,1870.8z M1741.9,1827.3c-2.7,0-5.3-1.3-7-3.7c-2.6-3.8-1.7-9.1,2.2-11.8
						c7.4-5.1,15.1-10.1,22.8-14.8c4-2.4,9.2-1.2,11.6,2.8c2.4,4,1.2,9.2-2.8,11.6c-7.4,4.6-14.9,9.4-22.1,14.4
						C1745.2,1826.8,1743.6,1827.3,1741.9,1827.3z M1802.3,1791.4c-3.1,0-6-1.7-7.5-4.6c-2.1-4.2-0.5-9.3,3.7-11.4
						c8.1-4.1,16.3-8.1,24.6-11.8c4.3-1.9,9.3,0,11.2,4.3s0,9.3-4.3,11.2c-8,3.6-16,7.4-23.8,11.4
						C1804.9,1791.1,1803.6,1791.4,1802.3,1791.4z M1866.9,1763.6c-3.5,0-6.7-2.2-8-5.6c-1.6-4.4,0.7-9.2,5.1-10.8
						c8.5-3,17.2-5.9,25.9-8.5c4.5-1.3,9.2,1.2,10.5,5.7c1.3,4.5-1.2,9.2-5.7,10.5c-8.4,2.5-16.8,5.3-25.1,8.2
						C1868.8,1763.4,1867.9,1763.6,1866.9,1763.6z M2170.7,1745.7c-0.6,0-1.3-0.1-1.9-0.2c-8.5-2-17.2-3.7-25.9-5.3
						c-4.6-0.8-7.7-5.2-6.8-9.8c0.8-4.6,5.2-7.7,9.8-6.8c8.9,1.6,17.9,3.4,26.7,5.4c4.6,1,7.4,5.6,6.3,10.1
						C2178,1743.1,2174.6,1745.7,2170.7,1745.7z M1934.6,1744.4c-3.9,0-7.4-2.7-8.3-6.7c-1-4.6,1.9-9.1,6.5-10l3.3-0.7
						c7.7-1.6,15.6-3.1,23.4-4.4c4.6-0.8,9,2.4,9.7,7c0.8,4.6-2.3,9-7,9.7c-7.6,1.3-15.2,2.7-22.7,4.3l-3.2,0.7
						C1935.8,1744.3,1935.2,1744.4,1934.6,1744.4z M2101.3,1734.4c-0.3,0-0.5,0-0.8,0c-8.7-0.8-17.6-1.5-26.3-1.9
						c-4.7-0.2-8.3-4.2-8.1-8.8c0.2-4.7,4.1-8.3,8.8-8.1c9.1,0.4,18.2,1.1,27.2,1.9c4.6,0.4,8.1,4.6,7.6,9.2
						C2109.3,1731.2,2105.6,1734.4,2101.3,1734.4z M2004.2,1733.9c-4.3,0-8-3.3-8.4-7.7c-0.4-4.7,3.1-8.7,7.7-9.1
						c9-0.8,18.2-1.3,27.2-1.6c4.7-0.2,8.6,3.5,8.7,8.2c0.2,4.7-3.5,8.6-8.2,8.7c-8.7,0.3-17.6,0.8-26.4,1.6
						C2004.6,1733.9,2004.4,1733.9,2004.2,1733.9z"/>
				</g>
				<g>
					<path class="st2" d="M2225.9,1761.5c-0.9,0-1.8-0.1-2.8-0.5c-4.2-1.4-8.4-2.8-12.6-4.2c-4.4-1.4-6.9-6.2-5.5-10.6
						c1.4-4.5,6.2-6.9,10.6-5.5c4.4,1.4,8.7,2.8,13,4.3c4.4,1.5,6.8,6.3,5.2,10.7C2232.7,1759.3,2229.4,1761.5,2225.9,1761.5z"/>
				</g>
			</g>
			<g class="st48">
				<g>
					<path class="st2" d="M2538.2,2038.1c-3.1,0-6.2-1.8-7.6-4.8c-1.9-4-3.9-8-5.9-11.9c-2.1-4.2-0.5-9.2,3.6-11.4s9.2-0.5,11.4,3.6
						c2.1,4.1,4.1,8.2,6.1,12.3c2,4.2,0.3,9.3-3.9,11.3C2540.7,2037.9,2539.4,2038.1,2538.2,2038.1z"/>
				</g>
				<g>
					<path class="st2" d="M2048.8,2818.6c-3.1,0-6.2,0-9.3-0.1c-4.7-0.1-8.4-3.9-8.3-8.6c0.1-4.7,3.9-8.5,8.6-8.3
						c8.6,0.1,17.4,0.1,26-0.2c4.7-0.2,8.6,3.5,8.7,8.2c0.1,4.7-3.5,8.6-8.2,8.7C2060.5,2818.5,2054.6,2818.6,2048.8,2818.6z
						 M1996.8,2816.1c-0.3,0-0.5,0-0.8,0c-8.9-0.9-17.8-1.9-26.6-3.2c-4.6-0.7-7.8-5-7.1-9.6c0.7-4.6,4.9-7.8,9.6-7.1
						c8.5,1.2,17.2,2.3,25.8,3.1c4.6,0.4,8.1,4.6,7.6,9.2C2004.8,2812.8,2001.1,2816.1,1996.8,2816.1z M2108.8,2815.3
						c-4.3,0-7.9-3.2-8.4-7.5c-0.5-4.6,2.8-8.8,7.5-9.3c8.6-1,17.2-2.1,25.8-3.5c4.6-0.7,8.9,2.4,9.7,7c0.7,4.6-2.4,8.9-7,9.7
						c-8.8,1.4-17.7,2.6-26.6,3.6C2109.4,2815.3,2109.1,2815.3,2108.8,2815.3z M1928.4,2805c-0.6,0-1.3-0.1-1.9-0.2
						c-8.7-2-17.4-4.2-26-6.6c-4.5-1.3-7.1-5.9-5.9-10.4c1.3-4.5,5.9-7.1,10.4-5.9c8.3,2.3,16.8,4.5,25.2,6.4
						c4.6,1,7.4,5.6,6.4,10.1C1935.8,2802.4,1932.3,2805,1928.4,2805z M2177,2803.3c-3.8,0-7.3-2.6-8.2-6.5
						c-1.1-4.5,1.7-9.1,6.2-10.2c8.4-2,16.8-4.3,25.1-6.7c4.5-1.3,9.2,1.3,10.5,5.7c1.3,4.5-1.3,9.2-5.7,10.5
						c-8.5,2.5-17.2,4.8-25.9,6.9C2178.3,2803.2,2177.6,2803.3,2177,2803.3z M2243.1,2782.9c-3.4,0-6.6-2.1-7.9-5.5
						c-1.7-4.4,0.5-9.2,4.9-10.9c8-3.1,16.1-6.4,24-9.8c4.3-1.9,9.3,0.1,11.1,4.4c1.9,4.3-0.1,9.3-4.4,11.1
						c-8.2,3.6-16.5,7-24.8,10.1C2245.1,2782.7,2244.1,2782.9,2243.1,2782.9z M2306.1,2754.2c-3,0-5.9-1.6-7.5-4.5
						c-2.2-4.1-0.7-9.2,3.5-11.4c7.6-4.1,15.2-8.4,22.6-12.8c4-2.4,9.2-1.1,11.6,2.9c2.4,4,1.1,9.2-2.9,11.6
						c-7.6,4.6-15.5,9-23.3,13.2C2308.8,2753.8,2307.5,2754.2,2306.1,2754.2z M2364.9,2717.6c-2.6,0-5.2-1.2-6.9-3.5
						c-2.7-3.8-1.8-9.1,2-11.8c7-5,14-10.2,20.7-15.6c3.7-2.9,9-2.3,11.9,1.4c2.9,3.7,2.3,9-1.4,11.9c-7,5.5-14.2,10.9-21.4,16.1
						C2368.3,2717.1,2366.6,2717.6,2364.9,2717.6z M2418.5,2673.9c-2.3,0-4.5-0.9-6.2-2.7c-3.2-3.4-3-8.8,0.4-11.9
						c6.3-5.9,12.6-12,18.6-18.1c3.3-3.3,8.6-3.4,12-0.1c3.3,3.3,3.4,8.6,0.1,12c-6.2,6.3-12.7,12.6-19.2,18.7
						C2422.6,2673.2,2420.6,2673.9,2418.5,2673.9z M2466.1,2623.7c-1.9,0-3.8-0.6-5.4-2c-3.6-3-4.1-8.3-1.1-11.9
						c5.5-6.6,11-13.5,16.2-20.3c2.8-3.7,8.1-4.5,11.8-1.6c3.7,2.8,4.5,8.1,1.6,11.8c-5.4,7.1-11,14.1-16.7,21
						C2471,2622.7,2468.6,2623.7,2466.1,2623.7z M2507,2567.9c-1.6,0-3.1-0.4-4.5-1.3c-3.9-2.5-5.1-7.7-2.6-11.7
						c4.6-7.2,9.2-14.7,13.5-22.2c2.3-4.1,7.5-5.5,11.5-3.1c4.1,2.3,5.5,7.5,3.1,11.5c-4.4,7.7-9.1,15.4-13.9,22.9
						C2512.6,2566.5,2509.8,2567.9,2507,2567.9z M2540.6,2507.3c-1.2,0-2.4-0.3-3.6-0.8c-4.2-2-6-7-4-11.3
						c3.7-7.8,7.2-15.8,10.5-23.8c1.8-4.3,6.7-6.4,11.1-4.6c4.3,1.8,6.4,6.7,4.6,11.1c-3.4,8.2-7.1,16.5-10.9,24.5
						C2546.8,2505.5,2543.7,2507.3,2540.6,2507.3z M2566.1,2442.9c-0.9,0-1.7-0.1-2.6-0.4c-4.4-1.4-6.9-6.2-5.4-10.7
						c2.7-8.2,5.2-16.6,7.4-24.9c1.2-4.5,5.9-7.2,10.4-5.9c4.5,1.2,7.2,5.9,5.9,10.4c-2.3,8.6-4.9,17.2-7.7,25.7
						C2573,2440.6,2569.7,2442.9,2566.1,2442.9z M2583.3,2375.8c-0.5,0-1,0-1.6-0.1c-4.6-0.9-7.6-5.3-6.7-9.9
						c1.6-8.5,3-17.1,4.2-25.7c0.6-4.6,4.9-7.9,9.5-7.2c4.6,0.6,7.9,4.9,7.2,9.5c-1.2,8.8-2.7,17.7-4.3,26.5
						C2590.9,2373,2587.3,2375.8,2583.3,2375.8z M2591.8,2307c-0.2,0-0.3,0-0.5,0c-4.7-0.3-8.2-4.3-7.9-8.9c0.5-8.6,0.8-17.3,0.9-26
						c0-4.6,3.8-8.4,8.5-8.4c0,0,0.1,0,0.1,0c4.7,0,8.4,3.9,8.4,8.5c-0.1,8.9-0.4,17.9-0.9,26.8
						C2599.9,2303.6,2596.2,2307,2591.8,2307z M2591.3,2237.8c-4.4,0-8.1-3.4-8.4-7.9c-0.6-8.6-1.4-17.3-2.5-25.9
						c-0.6-4.6,2.8-8.8,7.4-9.4c4.6-0.6,8.8,2.8,9.4,7.4c1.1,8.9,1.9,17.8,2.5,26.7c0.3,4.7-3.2,8.7-7.8,9
						C2591.7,2237.8,2591.5,2237.8,2591.3,2237.8z M2582.1,2169.2c-3.9,0-7.5-2.8-8.3-6.8c-0.4-1.8-0.7-3.5-1.1-5.3
						c-1.4-6.7-3-13.4-4.6-20.1c-1.1-4.5,1.6-9.1,6.2-10.2c4.5-1.1,9.1,1.6,10.2,6.2c1.7,6.8,3.3,13.8,4.8,20.7
						c0.4,1.8,0.8,3.6,1.1,5.4c0.9,4.6-2.1,9-6.6,9.9C2583.2,2169.1,2582.6,2169.2,2582.1,2169.2z M2564.3,2102.3
						c-3.5,0-6.8-2.2-8-5.8c-2.7-8.2-5.7-16.4-8.8-24.4c-1.7-4.4,0.5-9.3,4.8-10.9c4.3-1.7,9.3,0.5,10.9,4.8
						c3.2,8.3,6.3,16.8,9.1,25.2c1.5,4.4-0.9,9.2-5.3,10.7C2566.1,2102.1,2565.2,2102.3,2564.3,2102.3z"/>
				</g>
				<g>
					<path class="st2" d="M1861.8,2785.2c-1,0-2-0.2-2.9-0.5c-4.3-1.6-8.6-3.2-12.8-4.9c-4.3-1.7-6.5-6.6-4.7-11
						c1.7-4.3,6.6-6.5,11-4.7c4.1,1.6,8.3,3.2,12.4,4.8c4.4,1.6,6.6,6.5,5,10.9C1868.5,2783.1,1865.2,2785.2,1861.8,2785.2z"/>
				</g>
			</g>
			<g>
				
					<linearGradient id="SVGID_00000120550262722217052630000002377222831993243819_" gradientUnits="userSpaceOnUse" x1="1337.2797" y1="1896.1904" x2="2617.1934" y2="-361.8731" gradientTransform="matrix(0.9622 -0.2723 -0.2723 -0.9622 940.8104 4118.0435)">
					<stop  offset="0" style="stop-color:#CB236D"/>
					<stop  offset="1" style="stop-color:#4C246D"/>
				</linearGradient>
				<path style="fill:url(#SVGID_00000120550262722217052630000002377222831993243819_);" d="M1847.9,2632.3
					c2.3,1.6,5.3,1.6,7.6-0.1l64.2-46.6c34.4,13.8,71.3,22.1,109.3,24.2l38.5,69.3c1.4,2.4,4.1,3.7,6.8,3.3l93.7-16.6
					c2.7-0.5,4.9-2.7,5.3-5.4l12.4-78.3c35.1-15,66.8-35.5,94.4-60.2l76.3,21.8c2.7,0.8,5.5-0.3,7.1-2.5l54.6-78
					c1.6-2.3,1.6-5.3-0.1-7.6l-46.6-64.2c13.8-34.4,22.1-71.3,24.2-109.3l69.3-38.5c2.4-1.3,3.7-4.1,3.3-6.8l-16.6-93.7
					c-0.5-2.7-2.7-4.9-5.4-5.3l-78.3-12.4c-15-35.1-35.5-66.8-60.2-94.4l21.8-76.3c0.8-2.7-0.3-5.5-2.5-7.1l-78-54.6
					c-2.3-1.6-5.3-1.6-7.6,0.1l-64.2,46.6c-34.4-13.8-71.3-22.1-109.3-24.2l-38.5-69.3c-1.3-2.4-4.1-3.7-6.8-3.3l-93.7,16.6
					c-2.7,0.5-4.9,2.7-5.3,5.4l-12.4,78.3c-35.1,15-66.8,35.5-94.4,60.2l-76.3-21.8c-2.7-0.8-5.5,0.3-7.1,2.5l-54.6,78
					c-1.6,2.3-1.6,5.3,0.1,7.6l46.6,64.2c-13.8,34.4-22.1,71.3-24.2,109.3l-69.3,38.5c-2.4,1.3-3.7,4.1-3.3,6.8l16.6,93.7
					c0.5,2.7,2.7,4.9,5.4,5.3l78.3,12.4c15,35.1,35.5,66.8,60.2,94.4l-21.8,76.3c-0.8,2.7,0.3,5.5,2.5,7.1L1847.9,2632.3z"/>
				<path class="st2" d="M2048.7,2353.9c-34.9,0-68.2-20.1-83.4-53.9c-10-22.2-10.7-47-2.1-69.8c8.7-22.8,25.7-40.8,47.9-50.8
					c45.9-20.6,100,0,120.7,45.9c20.6,45.9,0,100-45.9,120.7l0,0C2073.8,2351.3,2061.1,2353.9,2048.7,2353.9z M2048.5,2184.8
					c-10.8,0-21.6,2.3-31.8,6.9c-18.9,8.5-33.4,23.9-40.8,43.3c-7.4,19.4-6.8,40.5,1.8,59.5c17.6,39.1,63.7,56.6,102.8,39.1l0,0
					c39.1-17.6,56.6-63.7,39.1-102.8c-8.5-18.9-23.9-33.4-43.3-40.8C2067.2,2186.5,2057.8,2184.8,2048.5,2184.8z M2083.1,2339.7
					L2083.1,2339.7L2083.1,2339.7z"/>
				<path class="st2" d="M2049.2,2494c-0.7,0-1.4,0-2.1,0c-2,0-4.1-0.1-6.1-0.1c-0.1,0-0.3,0-0.4,0c-1.8-0.1-3.3-1.6-3.3-3.4
					c0,0,0-0.1,0-0.1c0.1-1.9,1.7-3.3,3.5-3.3c16,0.6,32.2-0.5,48.1-3.3c1.7-0.3,3.4-0.6,5.1-1c115-23,193-130.5,180.5-246.1
					c-0.5-5-1.3-10.1-2.2-15.2c-10.5-59.5-43.6-111.4-93.1-146c-49.5-34.7-109.6-48-169.1-37.4c-109.6,19.4-186.9,115.1-186.9,222.7
					c0,13,1.1,26.2,3.5,39.5c7.1,40.4,25,78,51.8,108.8c0.6,0.6,0.8,1.4,0.8,2.2c0,0.9-0.4,1.9-1.2,2.6c-1.4,1.2-3.5,1.1-4.8-0.3
					c-27.6-31.7-46-70.5-53.3-112.1c-2.4-13.7-3.6-27.2-3.6-40.7c0-110.9,79.6-209.4,192.5-229.4c126.5-22.4,247.7,62.4,270,189
					c2.4,13.7,3.6,27.2,3.6,40.7c0,110.9-79.6,209.4-192.5,229.4l0,0C2076.6,2492.8,2062.9,2494,2049.2,2494z"/>
			</g>
		</g>
		<g>
			<g class="st48">
				<g>
					<path class="st2" d="M2586.9,2157.2c-1.5,0-2.8-1-3.2-2.4c-0.8-2.7-1.6-5.5-2.3-8.3c-0.5-1.8,0.6-3.6,2.4-4.1
						c1.8-0.5,3.6,0.6,4.1,2.4c0.7,2.7,1.4,5.4,2.2,8c0.5,1.8-0.5,3.7-2.3,4.2C2587.6,2157.2,2587.2,2157.2,2586.9,2157.2z"/>
				</g>
				<g>
					<path class="st2" d="M2581.1,2132.4c-1.6,0-3-1.2-3.3-2.8c-1-5.6-1.8-11.4-2.4-17.1c-0.2-1.9,1.2-3.5,3-3.7
						c1.8-0.2,3.5,1.2,3.7,3c0.6,5.6,1.4,11.2,2.3,16.6c0.3,1.8-0.9,3.6-2.7,3.9C2581.5,2132.4,2581.3,2132.4,2581.1,2132.4z
						 M2577.6,2098.5c-1.8,0-3.3-1.4-3.4-3.3c-0.1-2.5-0.1-5-0.1-7.4c0-3.3,0.1-6.6,0.2-9.9c0.1-1.9,1.7-3.3,3.5-3.2
						c1.9,0.1,3.3,1.7,3.2,3.5c-0.1,3.2-0.2,6.4-0.2,9.6c0,2.4,0,4.8,0.1,7.2c0.1,1.9-1.4,3.4-3.3,3.5
						C2577.6,2098.5,2577.6,2098.5,2577.6,2098.5z M2579,2064.4c-0.1,0-0.3,0-0.4,0c-1.9-0.2-3.2-1.9-3-3.7
						c0.6-5.7,1.5-11.5,2.5-17.1c0.3-1.8,2.1-3.1,3.9-2.7c1.8,0.3,3,2.1,2.7,3.9c-1,5.5-1.8,11.1-2.5,16.6
						C2582.1,2063.2,2580.6,2064.4,2579,2064.4z M2585.2,2030.9c-0.3,0-0.6,0-0.9-0.1c-1.8-0.5-2.9-2.3-2.4-4.1
						c1.5-5.6,3.1-11.1,5-16.6c0.6-1.8,2.5-2.7,4.3-2.1c1.8,0.6,2.7,2.5,2.1,4.3c-1.8,5.3-3.4,10.7-4.9,16.1
						C2588.1,2029.9,2586.7,2030.9,2585.2,2030.9z M2596.2,1998.7c-0.4,0-0.9-0.1-1.3-0.3c-1.7-0.7-2.5-2.7-1.8-4.4
						c2.2-5.3,4.7-10.6,7.4-15.7c0.9-1.7,2.9-2.3,4.6-1.5c1.7,0.9,2.3,2.9,1.5,4.6c-2.6,5-5,10.1-7.1,15.2
						C2598.8,1997.9,2597.5,1998.7,2596.2,1998.7z M2611.8,1968.4c-0.6,0-1.2-0.2-1.8-0.5c-1.6-1-2.1-3.1-1.1-4.6
						c3-4.9,6.2-9.8,9.5-14.4c1.1-1.5,3.2-1.9,4.7-0.8c1.5,1.1,1.9,3.2,0.8,4.7c-3.2,4.5-6.4,9.3-9.3,14
						C2614.1,1967.8,2612.9,1968.4,2611.8,1968.4z M2631.6,1940.6c-0.8,0-1.5-0.3-2.2-0.8c-1.4-1.2-1.6-3.3-0.4-4.8
						c3.7-4.4,7.5-8.8,11.5-12.9c1.3-1.3,3.4-1.4,4.8-0.1c1.3,1.3,1.4,3.4,0.1,4.8c-3.9,4-7.6,8.2-11.2,12.5
						C2633.6,1940.2,2632.6,1940.6,2631.6,1940.6z M2655.2,1916.1c-0.9,0-1.8-0.4-2.5-1.1c-1.2-1.4-1.1-3.5,0.2-4.8
						c4.3-3.8,8.7-7.6,13.3-11.1c1.5-1.1,3.6-0.9,4.7,0.6c1.1,1.5,0.9,3.6-0.6,4.7c-4.4,3.4-8.7,7.1-12.9,10.8
						C2656.9,1915.8,2656.1,1916.1,2655.2,1916.1z M2682.1,1895.1c-1.1,0-2.2-0.5-2.8-1.5c-1-1.6-0.6-3.7,0.9-4.7
						c4.8-3.2,9.7-6.3,14.7-9.1c1.6-0.9,3.7-0.4,4.6,1.3c0.9,1.6,0.4,3.7-1.3,4.6c-4.8,2.8-9.7,5.7-14.3,8.8
						C2683.4,1894.9,2682.8,1895.1,2682.1,1895.1z M2925.3,1884c-0.5,0-1.1-0.1-1.6-0.4c-4.9-2.7-10-5.2-15-7.5
						c-1.7-0.8-2.5-2.8-1.7-4.5c0.8-1.7,2.8-2.5,4.5-1.7c5.2,2.4,10.4,5,15.5,7.7c1.6,0.9,2.2,2.9,1.4,4.6
						C2927.6,1883.4,2926.5,1884,2925.3,1884z M2711.7,1878.3c-1.3,0-2.5-0.7-3.1-1.9c-0.8-1.7-0.1-3.7,1.6-4.5
						c5.2-2.5,10.5-4.8,15.9-6.9c1.7-0.7,3.7,0.2,4.4,1.9c0.7,1.7-0.2,3.7-1.9,4.4c-5.2,2-10.4,4.3-15.4,6.7
						C2712.7,1878.2,2712.2,1878.3,2711.7,1878.3z M2894.2,1869.9c-0.4,0-0.8-0.1-1.2-0.2c-5.2-1.9-10.6-3.7-16-5.2
						c-1.8-0.5-2.8-2.4-2.3-4.2c0.5-1.8,2.4-2.8,4.2-2.3c5.5,1.6,11.1,3.4,16.4,5.4c1.8,0.6,2.6,2.6,2,4.3
						C2896.9,1869.1,2895.6,1869.9,2894.2,1869.9z M2743.5,1865.9c-1.4,0-2.8-0.9-3.2-2.4c-0.6-1.8,0.4-3.7,2.2-4.2
						c5.5-1.7,11.1-3.2,16.7-4.5c1.8-0.4,3.6,0.7,4.1,2.5c0.4,1.8-0.7,3.6-2.5,4.1c-5.4,1.3-10.9,2.7-16.2,4.4
						C2744.1,1865.9,2743.8,1865.9,2743.5,1865.9z M2861.5,1860.5c-0.2,0-0.5,0-0.7-0.1c-5.5-1.1-11-2.1-16.6-2.9
						c-1.8-0.3-3.1-2-2.9-3.8c0.3-1.8,1.9-3.1,3.8-2.9c5.7,0.8,11.4,1.8,17.1,2.9c1.8,0.4,3,2.2,2.6,4
						C2864.4,1859.5,2863,1860.5,2861.5,1860.5z M2776.7,1858.3c-1.6,0-3.1-1.2-3.3-2.9c-0.3-1.8,1-3.6,2.8-3.9
						c5.7-0.9,11.4-1.6,17.2-2c1.9-0.2,3.5,1.2,3.6,3.1c0.2,1.9-1.2,3.5-3.1,3.6c-5.6,0.5-11.2,1.1-16.7,2
						C2777,1858.2,2776.8,1858.3,2776.7,1858.3z M2827.7,1856c-0.1,0-0.1,0-0.2,0c-4.9-0.3-9.9-0.5-14.8-0.5l-2,0
						c-1.9,0-3.4-1.5-3.4-3.4c0-1.9,1.5-3.4,3.4-3.4l2,0c5.1,0,10.2,0.2,15.3,0.5c1.9,0.1,3.3,1.7,3.2,3.6
						C2830.9,1854.6,2829.5,1856,2827.7,1856z"/>
				</g>
				<g>
					<path class="st2" d="M2947.1,1897.5c-0.7,0-1.3-0.2-1.9-0.6c-2.3-1.6-4.6-3.1-6.9-4.6c-1.6-1-2-3.1-1-4.7c1-1.6,3.1-2,4.7-1
						c2.4,1.5,4.8,3.1,7.1,4.8c1.5,1.1,1.9,3.2,0.8,4.7C2949.2,1897,2948.2,1897.5,2947.1,1897.5z"/>
				</g>
			</g>
			<g class="st48">
				<g>
					<path class="st2" d="M3045.1,2052.3c-1.6,0-3.1-1.2-3.3-2.8c-0.5-2.7-1-5.5-1.5-8.2c-0.4-1.8,0.8-3.6,2.6-4
						c1.8-0.4,3.6,0.8,4,2.6c0.6,2.8,1.1,5.6,1.6,8.4c0.3,1.8-0.9,3.6-2.8,3.9C3045.5,2052.2,3045.3,2052.3,3045.1,2052.3z"/>
				</g>
				<g>
					<path class="st2" d="M2818.8,2326.3c-1.8,0-3.3-1.5-3.4-3.3c0-1.9,1.4-3.4,3.3-3.5c5.5-0.1,11-0.5,16.5-1
						c1.8-0.2,3.5,1.2,3.7,3c0.2,1.9-1.2,3.5-3,3.7C2830.2,2325.8,2824.5,2326.1,2818.8,2326.3
						C2818.8,2326.3,2818.8,2326.3,2818.8,2326.3z M2802,2326.1c-0.1,0-0.1,0-0.2,0c-1.8-0.1-3.6-0.2-5.5-0.3
						c-3.8-0.3-7.7-0.6-11.5-1.1c-1.9-0.2-3.2-1.9-3-3.8c0.2-1.9,1.9-3.2,3.8-3c3.7,0.4,7.4,0.8,11.2,1c1.8,0.1,3.6,0.2,5.3,0.3
						c1.9,0.1,3.3,1.7,3.2,3.5C2805.3,2324.7,2803.8,2326.1,2802,2326.1z M2852.2,2323.1c-1.6,0-3.1-1.2-3.3-2.8
						c-0.3-1.8,0.9-3.6,2.8-3.9c5.4-0.9,10.9-2,16.2-3.3c1.8-0.4,3.6,0.7,4.1,2.5c0.4,1.8-0.7,3.6-2.5,4.1
						c-5.5,1.3-11.1,2.5-16.7,3.4C2852.5,2323.1,2852.4,2323.1,2852.2,2323.1z M2768.7,2322.2c-0.2,0-0.4,0-0.6-0.1
						c-5.6-1.1-11.1-2.3-16.6-3.8c-1.8-0.5-2.9-2.3-2.4-4.1c0.5-1.8,2.3-2.9,4.1-2.4c5.3,1.4,10.7,2.6,16.1,3.7c1.8,0.3,3,2.1,2.7,4
						C2771.7,2321,2770.3,2322.2,2768.7,2322.2z M2884.7,2315.1c-1.4,0-2.8-0.9-3.2-2.4c-0.6-1.8,0.4-3.7,2.2-4.3
						c5.2-1.7,10.4-3.6,15.5-5.6c1.7-0.7,3.7,0.1,4.4,1.9c0.7,1.7-0.1,3.7-1.9,4.4c-5.2,2.1-10.6,4-16,5.8
						C2885.4,2315.1,2885.1,2315.1,2884.7,2315.1z M2736.3,2313.6c-0.4,0-0.7-0.1-1.1-0.2c-5.3-1.8-10.7-3.9-15.9-6.1
						c-1.7-0.7-2.5-2.7-1.8-4.4s2.7-2.5,4.4-1.8c5.1,2.2,10.3,4.1,15.4,5.9c1.8,0.6,2.7,2.5,2.1,4.3
						C2739,2312.7,2737.7,2313.6,2736.3,2313.6z M2915.8,2302.7c-1.3,0-2.5-0.7-3-1.9c-0.8-1.7-0.1-3.7,1.6-4.5
						c4.9-2.4,9.8-5,14.6-7.8c1.6-0.9,3.7-0.4,4.6,1.2c0.9,1.6,0.4,3.7-1.2,4.6c-4.9,2.8-9.9,5.5-15,8
						C2916.8,2302.5,2916.3,2302.7,2915.8,2302.7z M2705.4,2300.4c-0.5,0-1-0.1-1.5-0.4c-5-2.6-10-5.4-14.9-8.3
						c-1.6-1-2.1-3.1-1.1-4.6c1-1.6,3.1-2.1,4.6-1.1c4.7,2.9,9.6,5.6,14.4,8.1c1.7,0.9,2.3,2.9,1.5,4.6
						C2707.8,2299.8,2706.6,2300.4,2705.4,2300.4z M2944.8,2285.9c-1.1,0-2.1-0.5-2.8-1.5c-1-1.5-0.6-3.6,0.9-4.7
						c4.5-3.1,9-6.4,13.3-9.8c1.5-1.2,3.6-0.9,4.7,0.6c1.2,1.5,0.9,3.6-0.6,4.7c-4.4,3.5-9.1,6.9-13.7,10
						C2946.1,2285.7,2945.5,2285.9,2944.8,2285.9z M2971.2,2265.1c-0.9,0-1.8-0.4-2.5-1.1c-1.3-1.4-1.2-3.5,0.2-4.8
						c4.1-3.7,8-7.6,11.8-11.5c1.3-1.4,3.4-1.4,4.8-0.1c1.3,1.3,1.4,3.4,0.1,4.8c-3.9,4.1-8,8.1-12.2,11.9
						C2972.8,2264.8,2972,2265.1,2971.2,2265.1z M2994.3,2240.9c-0.8,0-1.5-0.3-2.2-0.8c-1.4-1.2-1.6-3.3-0.4-4.8
						c3.5-4.2,6.9-8.6,10.1-13.1c1.1-1.5,3.2-1.9,4.7-0.8c1.5,1.1,1.9,3.2,0.8,4.7c-3.3,4.6-6.8,9.1-10.4,13.5
						C2996.3,2240.5,2995.3,2240.9,2994.3,2240.9z M3013.8,2213.6c-0.6,0-1.2-0.2-1.8-0.5c-1.6-1-2.1-3.1-1.1-4.6
						c2.9-4.7,5.6-9.5,8.1-14.4c0.9-1.7,2.9-2.3,4.6-1.5c1.7,0.9,2.3,2.9,1.5,4.6c-2.6,5-5.4,10-8.4,14.8
						C3016.1,2213,3015,2213.6,3013.8,2213.6z M3029.3,2183.8c-0.4,0-0.9-0.1-1.3-0.3c-1.7-0.7-2.5-2.7-1.8-4.4
						c2.2-5,4.2-10.2,6-15.4c0.6-1.8,2.5-2.7,4.3-2.1c1.8,0.6,2.7,2.5,2.1,4.3c-1.9,5.3-3.9,10.7-6.1,15.9
						C3031.8,2183,3030.6,2183.8,3029.3,2183.8z M3040.2,2152.1c-0.3,0-0.6,0-0.9-0.1c-1.8-0.5-2.9-2.3-2.4-4.1
						c1.4-5.3,2.7-10.7,3.7-16.1c0.4-1.8,2.1-3,4-2.7c1.8,0.4,3,2.1,2.7,4c-1.1,5.6-2.4,11.1-3.8,16.6
						C3043.1,2151.1,3041.7,2152.1,3040.2,2152.1z M3046.6,2119.1c-0.1,0-0.3,0-0.4,0c-1.9-0.2-3.2-1.9-3-3.8
						c0.5-3.9,0.8-7.9,1.1-11.8c0.1-1.6,0.2-3.1,0.3-4.7c0.1-1.9,1.6-3.3,3.5-3.2c1.9,0.1,3.3,1.7,3.2,3.5c-0.1,1.6-0.2,3.2-0.3,4.8
						c-0.3,4-0.7,8.1-1.1,12.2C3049.7,2117.9,3048.3,2119.1,3046.6,2119.1z M3048.2,2085.7c-1.8,0-3.3-1.5-3.4-3.3
						c-0.1-5.5-0.4-11-0.9-16.5c-0.2-1.9,1.2-3.5,3.1-3.7c1.9-0.2,3.5,1.2,3.7,3.1c0.5,5.6,0.8,11.4,1,17
						C3051.6,2084.1,3050.2,2085.6,3048.2,2085.7C3048.3,2085.7,3048.2,2085.7,3048.2,2085.7z"/>
				</g>
				<g>
					<path class="st2" d="M2676.6,2282.9c-0.7,0-1.4-0.2-2-0.6c-2.3-1.7-4.6-3.4-6.9-5.1c-1.5-1.1-1.8-3.3-0.6-4.7
						c1.1-1.5,3.3-1.8,4.7-0.6c2.2,1.7,4.4,3.3,6.7,4.9c1.5,1.1,1.9,3.2,0.8,4.7C2678.7,2282.4,2677.7,2282.9,2676.6,2282.9z"/>
				</g>
			</g>
			<g>
				
					<linearGradient id="SVGID_00000115508460532809322510000006335132847474052774_" gradientUnits="userSpaceOnUse" x1="2920.3174" y1="1803.4585" x2="2613.2966" y2="1290.8904" gradientTransform="matrix(1 0 0 -1 0 3710)">
					<stop  offset="0" style="stop-color:#CB236D"/>
					<stop  offset="7.210000e-02" style="stop-color:#C2236D"/>
					<stop  offset="1" style="stop-color:#4C246D"/>
				</linearGradient>
				<path style="fill:url(#SVGID_00000115508460532809322510000006335132847474052774_);" d="M2685.7,2216.2c0.8,0.9,2,1.3,3.2,0.9
					l32.3-11.9c12.7,9.8,27.1,17.6,42.7,23l7.9,33.5c0.3,1.2,1.3,2,2.5,2.2l41,4.2c1.2,0.1,2.3-0.5,2.8-1.6l14.4-31.2
					c16.4-2.1,32-6.9,46.5-14l29.2,18.1c1,0.6,2.3,0.5,3.3-0.2l32-26.1c0.9-0.8,1.3-2,0.9-3.2l-11.9-32.3
					c9.8-12.7,17.6-27.1,23-42.7l33.5-7.9c1.2-0.3,2-1.3,2.2-2.5l4.2-41c0.1-1.2-0.5-2.3-1.6-2.8l-31.2-14.4
					c-2.1-16.4-6.9-32-14-46.5l18.1-29.2c0.6-1,0.5-2.3-0.2-3.3l-26.1-32c-0.8-0.9-2-1.3-3.2-0.9l-32.3,11.9
					c-12.7-9.8-27.1-17.6-42.7-23l-7.9-33.5c-0.3-1.2-1.3-2-2.5-2.2l-41-4.2c-1.2-0.1-2.3,0.5-2.8,1.6l-14.4,31.2
					c-16.4,2.1-32,6.9-46.5,14l-29.2-18.1c-1-0.6-2.3-0.5-3.3,0.2l-32,26.1c-0.9,0.8-1.3,2-0.9,3.2l11.9,32.3
					c-9.8,12.7-17.6,27.1-23,42.7l-33.5,7.9c-1.2,0.3-2,1.3-2.2,2.5l-4.2,41c-0.1,1.2,0.5,2.3,1.6,2.8l31.2,14.4
					c2.1,16.4,6.9,32,14,46.5l-18.1,29.2c-0.6,1-0.5,2.3,0.2,3.3L2685.7,2216.2z"/>
				<path class="st51" d="M2813,2125.7c-19.5,0-36.6-14.3-39.6-34.2c-3.2-21.8,11.9-42.2,33.7-45.4c21.8-3.2,42.2,11.9,45.4,33.7
					c1.6,10.6-1.1,21.1-7.5,29.7c-6.4,8.6-15.7,14.2-26.3,15.7l0,0C2816.9,2125.5,2814.9,2125.7,2813,2125.7z M2813,2052.4
					c-1.6,0-3.2,0.1-4.9,0.4c-18.1,2.7-30.7,19.6-28,37.7c2.7,18.1,19.6,30.7,37.7,28l0,0c8.8-1.3,16.5-5.9,21.8-13.1
					c5.3-7.1,7.5-15.9,6.2-24.7C2843.5,2064.3,2829.2,2052.4,2813,2052.4z"/>
				<path class="st51" d="M2813.8,2188c-3.5,0-7-0.2-10.6-0.5h0c-6.5-0.7-13-1.9-19.2-3.8c0,0,0,0-0.1,0c-0.7-0.2-1.4-0.4-2.2-0.7
					c-1.4-0.5-2.3-1.8-2.3-3.2c0-0.3,0.1-0.7,0.2-1c0.6-1.8,2.5-2.7,4.3-2.2c6.5,2.1,13.2,3.5,20,4.2c1.1,0.1,2.1,0.2,3.2,0.3
					c16.5,1.1,32.7-1.9,47.3-8.8c6.8-3.2,13.3-7.2,19.3-12c0.2-0.2,0.5-0.4,0.7-0.6c19.9-16.2,32.3-39.3,34.9-64.8
					c0.3-3.3,0.5-6.6,0.5-9.9c0-22.1-7.5-43.3-21.7-60.6c-16.2-19.9-39.3-32.3-64.8-34.9c-25.6-2.6-50.6,4.9-70.5,21.2
					c-19.9,16.2-32.3,39.3-34.9,64.8c-0.3,3.3-0.5,6.5-0.5,9.8c0,14.1,3.1,28,9.1,40.7c0.2,0.5,0.3,1,0.3,1.4c0,1.3-0.7,2.5-1.9,3.1
					c-1.7,0.8-3.7,0.1-4.5-1.6c-6.4-13.7-9.7-28.5-9.7-43.6c0-3.5,0.2-7,0.5-10.4c2.8-27.3,16-52,37.3-69.4
					c21.3-17.4,48.1-25.4,75.4-22.7c27.3,2.8,52,16,69.4,37.3c15.1,18.5,23.2,41.2,23.2,64.9c0,3.5-0.2,7-0.5,10.6
					c-2.8,27.3-16,52-37.3,69.4C2860.2,2179.9,2837.5,2188,2813.8,2188z"/>
			</g>
		</g>
		<g>
			<g class="st48">
				<g>
					<path class="st2" d="M2129,1711.9c-3.7,0-7-2.4-8.1-6.1c-1.3-4.4-2.5-8.9-3.6-13.4c-1.1-4.5,1.6-9.1,6.1-10.3
						c4.5-1.1,9.1,1.6,10.3,6.1c1.1,4.2,2.2,8.5,3.5,12.7c1.3,4.5-1.3,9.2-5.7,10.5C2130.6,1711.8,2129.8,1711.9,2129,1711.9z"/>
				</g>
				<g>
					<path class="st2" d="M2117.4,1655.5c-4.2,0-7.9-3.2-8.4-7.5c-1.1-9.2-1.8-18.5-2.2-27.7c-0.2-4.7,3.4-8.6,8.1-8.8
						c4.6-0.2,8.6,3.4,8.8,8.1c0.4,8.8,1.1,17.7,2.1,26.4c0.6,4.6-2.8,8.8-7.4,9.4C2118.1,1655.4,2117.7,1655.5,2117.4,1655.5z
						 M2116.3,1584.3c-0.2,0-0.5,0-0.7,0c-4.7-0.4-8.1-4.5-7.7-9.1c0.8-9.2,1.9-18.5,3.4-27.6c0.8-4.6,5.1-7.7,9.7-7
						c4.6,0.8,7.7,5.1,7,9.7c-1.4,8.7-2.5,17.5-3.3,26.3C2124.3,1581,2120.6,1584.3,2116.3,1584.3z M2129.5,1514.5
						c-0.8,0-1.6-0.1-2.4-0.4c-4.5-1.3-7-6-5.7-10.5c2.6-8.9,5.7-17.7,9-26.3c1.7-4.4,6.6-6.5,10.9-4.8c4.4,1.7,6.5,6.6,4.8,10.9
						c-3.2,8.2-6,16.6-8.6,25C2136.5,1512.1,2133.2,1514.5,2129.5,1514.5z M2156.8,1448.7c-1.4,0-2.7-0.3-4-1
						c-4.1-2.2-5.6-7.4-3.4-11.5c4.4-8.1,9.2-16.2,14.2-23.9c2.5-3.9,7.8-5,11.7-2.5c3.9,2.5,5,7.8,2.5,11.7
						c-4.8,7.4-9.3,15-13.5,22.8C2162.7,1447.1,2159.8,1448.7,2156.8,1448.7z M2197,1390c-1.9,0-3.9-0.7-5.5-2c-3.6-3-4-8.3-1-11.9
						c6-7.1,12.3-13.9,18.8-20.5c3.3-3.3,8.6-3.3,12-0.1c3.3,3.3,3.3,8.6,0.1,12c-6.2,6.2-12.2,12.8-17.9,19.5
						C2201.8,1389,2199.4,1390,2197,1390z M2248.2,1340.7c-2.5,0-5-1.1-6.7-3.2c-2.9-3.7-2.2-9,1.4-11.9
						c7.3-5.7,14.8-11.2,22.5-16.3c3.9-2.6,9.1-1.5,11.7,2.4c2.6,3.9,1.5,9.1-2.4,11.7c-7.3,4.9-14.5,10.1-21.5,15.5
						C2251.9,1340.1,2250,1340.7,2248.2,1340.7z M2308.4,1302.8c-3.1,0-6.1-1.7-7.6-4.7c-2.1-4.2-0.4-9.3,3.8-11.3
						c8.3-4.1,16.8-7.9,25.4-11.3c4.3-1.7,9.3,0.4,11,4.7c1.7,4.3-0.4,9.3-4.7,11c-8.1,3.3-16.3,6.9-24.2,10.8
						C2310.9,1302.5,2309.7,1302.8,2308.4,1302.8z M2610.1,1299.9c-1.2,0-2.4-0.3-3.6-0.8c-8-3.8-16.2-7.2-24.4-10.3
						c-4.4-1.7-6.6-6.5-4.9-10.9c1.7-4.4,6.5-6.6,10.9-4.9c8.6,3.3,17.2,6.9,25.6,10.9c4.2,2,6,7,4,11.3
						C2616.4,1298.1,2613.3,1299.9,2610.1,1299.9z M2375,1277.9c-3.8,0-7.2-2.5-8.2-6.3c-1.2-4.5,1.5-9.1,6.1-10.3
						c8.9-2.3,18.1-4.3,27.2-5.9c4.6-0.8,9,2.3,9.8,6.9c0.8,4.6-2.3,9-6.9,9.8c-8.7,1.5-17.4,3.4-25.9,5.6
						C2376.4,1277.9,2375.7,1277.9,2375,1277.9z M2543,1276.4c-0.6,0-1.3-0.1-2-0.2c-8.6-2-17.3-3.8-26-5.1c-4.6-0.7-7.8-5-7-9.7
						c0.7-4.6,5-7.8,9.7-7c9.1,1.4,18.3,3.2,27.3,5.4c4.5,1.1,7.3,5.6,6.3,10.2C2550.3,1273.8,2546.8,1276.4,2543,1276.4z
						 M2445.3,1267.3c-4.5,0-8.2-3.5-8.4-8.1c-0.2-4.7,3.4-8.6,8-8.8c9.2-0.4,18.5-0.5,27.8-0.2c4.7,0.1,8.3,4,8.2,8.7
						c-0.1,4.7-4,8.3-8.7,8.2c-8.9-0.3-17.7-0.2-26.5,0.2C2445.6,1267.3,2445.5,1267.3,2445.3,1267.3z"/>
				</g>
				<g>
					<path class="st2" d="M2660.2,1328.8c-1.7,0-3.4-0.5-4.8-1.5c-3.6-2.5-7.3-5-11-7.3c-3.9-2.5-5.1-7.7-2.6-11.7
						c2.5-3.9,7.7-5.1,11.7-2.6c3.9,2.5,7.7,5.1,11.5,7.7c3.8,2.7,4.8,7.9,2.1,11.8C2665.5,1327.6,2662.8,1328.8,2660.2,1328.8z"/>
				</g>
			</g>
			<g class="st48">
				<g>
					<path class="st2" d="M2804.9,1558.1c-4.1,0-7.7-3-8.3-7.1c-0.7-4.3-1.5-8.7-2.4-13c-0.9-4.6,2-9,6.6-10c4.6-0.9,9,2,10,6.6
						c0.9,4.5,1.8,9.1,2.5,13.6c0.7,4.6-2.4,9-7,9.7C2805.8,1558.1,2805.3,1558.1,2804.9,1558.1z"/>
				</g>
				<g>
					<path class="st2" d="M2459.5,1961.3C2459.5,1961.3,2459.5,1961.3,2459.5,1961.3c-7.3-0.1-14.6-0.3-21.9-0.8
						c-1.8-0.1-3.7-0.3-5.5-0.4c-4.7-0.4-8.1-4.5-7.7-9.1s4.5-8.1,9.1-7.7c1.7,0.1,3.5,0.3,5.2,0.4c6.9,0.5,13.9,0.7,20.8,0.8
						c4.7,0,8.4,3.9,8.4,8.5C2467.9,1957.5,2464.2,1961.3,2459.5,1961.3z M2502.8,1958.9c-4.2,0-7.9-3.2-8.4-7.5
						c-0.5-4.6,2.8-8.8,7.4-9.4c8.6-1,17.3-2.4,25.7-4c4.6-0.9,9,2.1,9.9,6.7c0.9,4.6-2.1,9-6.7,9.9c-8.9,1.7-18,3.2-27,4.2
						C2503.5,1958.9,2503.2,1958.9,2502.8,1958.9z M2389.9,1953.7c-0.6,0-1.2-0.1-1.8-0.2c-8.9-1.9-17.8-4.1-26.5-6.7
						c-4.5-1.3-7-6-5.7-10.5c1.3-4.5,6-7,10.5-5.7c8.3,2.4,16.8,4.6,25.3,6.4c4.6,1,7.5,5.5,6.5,10
						C2397.4,1951,2393.9,1953.7,2389.9,1953.7z M2571.2,1943.8c-3.5,0-6.8-2.2-8-5.8c-1.5-4.4,0.9-9.2,5.4-10.7
						c8.2-2.7,16.4-5.8,24.4-9.1c4.3-1.8,9.3,0.2,11.1,4.5c1.8,4.3-0.2,9.3-4.5,11.1c-8.4,3.5-17,6.7-25.6,9.6
						C2572.9,1943.7,2572,1943.8,2571.2,1943.8z M2323.3,1932.4c-1.1,0-2.3-0.2-3.4-0.7c-8.3-3.6-16.6-7.6-24.6-11.9
						c-4.1-2.2-5.7-7.3-3.5-11.4c2.2-4.1,7.3-5.7,11.4-3.5c7.6,4.1,15.5,7.9,23.5,11.3c4.3,1.9,6.2,6.9,4.4,11.1
						C2329.6,1930.5,2326.5,1932.4,2323.3,1932.4z M2635,1915.2c-2.9,0-5.8-1.5-7.3-4.2c-2.3-4-0.9-9.2,3.1-11.5
						c7.5-4.3,14.9-9,22.1-13.8c3.9-2.6,9.1-1.6,11.7,2.2c2.6,3.9,1.6,9.1-2.2,11.7c-7.5,5.1-15.3,10-23.2,14.5
						C2637.9,1914.9,2636.5,1915.2,2635,1915.2z M2691.9,1874.4c-2.3,0-4.7-1-6.3-2.9c-3.1-3.5-2.8-8.8,0.7-11.9
						c6.5-5.7,12.8-11.8,18.9-18c3.3-3.3,8.6-3.4,12-0.2c3.3,3.3,3.4,8.6,0.2,12c-6.3,6.5-13,12.8-19.8,18.9
						C2695.9,1873.7,2693.9,1874.4,2691.9,1874.4z M2739.4,1823.1c-1.8,0-3.6-0.6-5.1-1.7c-3.7-2.8-4.5-8.1-1.7-11.8
						c5.2-6.9,10.2-14.1,14.9-21.4c2.5-3.9,7.7-5.1,11.7-2.6c3.9,2.5,5.1,7.7,2.6,11.7c-4.9,7.6-10.2,15.2-15.6,22.4
						C2744.5,1821.9,2742,1823.1,2739.4,1823.1z M2775.8,1763.2c-1.2,0-2.5-0.3-3.6-0.8c-4.2-2-6-7.1-4-11.3
						c3.7-7.8,7.2-15.9,10.3-24c1.7-4.4,6.6-6.5,10.9-4.9c4.4,1.7,6.5,6.6,4.9,10.9c-3.3,8.5-6.9,16.9-10.8,25.2
						C2782,1761.5,2778.9,1763.2,2775.8,1763.2z M2799.3,1697.3c-0.7,0-1.3-0.1-2-0.2c-4.5-1.1-7.3-5.7-6.2-10.2
						c2.1-8.4,3.8-17,5.2-25.5c0.8-4.6,5.1-7.7,9.7-7c4.6,0.8,7.7,5.1,7,9.7c-1.5,9-3.3,18-5.5,26.8
						C2806.6,1694.7,2803.1,1697.3,2799.3,1697.3z M2809.1,1628c-0.1,0-0.2,0-0.3,0c-4.7-0.2-8.3-4.1-8.1-8.8
						c0.2-4.6,0.3-9.3,0.3-13.9c0-4.1-0.1-8.1-0.2-12.2c-0.2-4.7,3.5-8.6,8.1-8.8c4.7-0.2,8.6,3.5,8.8,8.1c0.1,4.2,0.2,8.5,0.2,12.8
						c0,4.8-0.1,9.8-0.3,14.6C2817.3,1624.4,2813.6,1628,2809.1,1628z"/>
				</g>
				<g>
					<path class="st2" d="M2262.1,1897.9c-1.7,0-3.4-0.5-4.9-1.5c-3.8-2.7-7.5-5.4-11.2-8.2c-3.7-2.8-4.4-8.1-1.6-11.9
						c2.8-3.7,8.1-4.4,11.9-1.6c3.5,2.7,7,5.3,10.6,7.8c3.8,2.7,4.7,8,2,11.8C2267.3,1896.6,2264.7,1897.9,2262.1,1897.9z"/>
				</g>
			</g>
			<g>
				
					<linearGradient id="SVGID_00000096746206711097063120000008389829935609303740_" gradientUnits="userSpaceOnUse" x1="2491.4907" y1="2134.438" x2="2848.5095" y2="2470.0354" gradientTransform="matrix(1 0 0 -1 0 3710)">
					<stop  offset="0" style="stop-color:#CB236D"/>
					<stop  offset="1" style="stop-color:#4C246D"/>
				</linearGradient>
				<path style="fill:url(#SVGID_00000096746206711097063120000008389829935609303740_);" d="M2274.7,1795.3c1.1,1.4,3,1.9,4.7,1.3
					l47.6-17.5c18.8,14.5,40,26,63,33.9l11.6,49.3c0.4,1.7,1.9,3,3.6,3.2l60.5,6.1c1.8,0.2,3.5-0.8,4.2-2.4l21.3-46
					c24.2-3.1,47.3-10.2,68.5-20.6l43.1,26.7c1.5,0.9,3.4,0.8,4.8-0.3l47.1-38.5c1.4-1.1,1.9-3,1.3-4.7l-17.5-47.6
					c14.5-18.8,26-40,33.9-63l49.3-11.6c1.7-0.4,3-1.9,3.2-3.6l6.1-60.5c0.2-1.8-0.8-3.5-2.4-4.2l-46-21.3
					c-3.1-24.2-10.2-47.3-20.6-68.5l26.7-43.1c0.9-1.5,0.8-3.4-0.3-4.8l-38.5-47.1c-1.1-1.4-3-1.9-4.7-1.3l-47.6,17.5
					c-18.8-14.5-40-26-63-33.9l-11.6-49.3c-0.4-1.7-1.9-3-3.6-3.2l-60.5-6.1c-1.8-0.2-3.5,0.8-4.2,2.4l-21.3,46
					c-24.2,3.1-47.3,10.2-68.5,20.6l-43.1-26.7c-1.5-0.9-3.5-0.8-4.8,0.3l-47.1,38.5c-1.4,1.1-1.9,3-1.3,4.7l17.5,47.6
					c-14.5,18.8-26,40-33.9,63l-49.3,11.6c-1.7,0.4-3,1.9-3.2,3.6l-6.1,60.5c-0.2,1.8,0.8,3.5,2.4,4.2l46,21.3
					c3.1,24.2,10.2,47.3,20.6,68.5l-26.7,43.1c-0.9,1.5-0.8,3.4,0.3,4.8L2274.7,1795.3z"/>
				<path class="st51" d="M2462.3,1667.1c-13.7,0-27-4.4-38.1-12.7c-13.8-10.2-22.7-25.2-25.2-42.1c-2.5-17,1.8-33.9,12-47.6
					c10.2-13.8,25.2-22.7,42.1-25.2c17-2.5,33.9,1.8,47.6,12c13.8,10.2,22.7,25.2,25.2,42.1c5.2,35-19.1,67.7-54.1,72.8l0,0
					C2468.6,1666.8,2465.4,1667.1,2462.3,1667.1z M2462.5,1559c-2.2,0-4.3,0.2-6.5,0.5c-23.9,3.5-40.5,25.9-37,49.8
					c1.7,11.6,7.8,21.8,17.2,28.8c9.4,7,21,9.9,32.6,8.2l0,0c23.9-3.5,40.5-25.9,37-49.8c-1.7-11.6-7.8-21.8-17.2-28.8
					C2480.9,1562,2471.9,1559,2462.5,1559z"/>
				<path class="st51" d="M2463.6,1752.2c-5.1,0-10.3-0.3-15.4-0.8c-10.7-1.1-21.2-3.3-31.3-6.6c-1.4-0.5-2.3-1.8-2.3-3.2
					c0-0.3,0.1-0.7,0.2-1c0.6-1.8,2.5-2.8,4.3-2.2c9.6,3.1,19.7,5.2,29.9,6.3c38.1,3.9,75.4-7.3,105.1-31.6
					c29.7-24.2,48.1-58.5,52-96.7c0.5-4.9,0.7-9.8,0.7-14.6c0-72.6-55.2-135.1-129-142.5c-78.7-8-149.2,49.6-157.1,128.2
					c-0.5,4.9-0.7,9.7-0.7,14.6c0,21,4.6,41.7,13.5,60.8c0.2,0.5,0.3,1,0.3,1.4c0,1.3-0.7,2.5-1.9,3.1c-1.7,0.8-3.7,0.1-4.5-1.6
					c-9.4-19.9-14.2-41.7-14.2-63.6c0-5.1,0.3-10.2,0.8-15.2c8.3-82.4,82.2-142.6,164.5-134.3c77.3,7.8,135,73.2,135,149.3
					c0,5-0.3,10.1-0.8,15.3c-4,39.9-23.4,75.9-54.5,101.2C2531.2,1740.4,2498.1,1752.2,2463.6,1752.2z"/>
			</g>
		</g>
	</g>
</g>
<text transform="matrix(1 0 0 1 35.0908 576.1915)" class="st53 st54 st55">ESTAMOS TRABAJANDO EN ESTO</text>
</svg>
